STARTFONT 2.1
COMMENT
COMMENT Converted from OpenType font "TitilliumWeb-SemiBold.ttf" by "otf2bdf 3.0".
COMMENT
FONT -FreeType-Titillium Web SemiBold-Medium-R-Normal--30-300-72-72-P-131-ISO10646-1
SIZE 30 72 72
FONTBOUNDINGBOX 39 42 -7 -9
STARTPROPERTIES 19
FOUNDRY "FreeType"
FAMILY_NAME "Titillium Web SemiBold"
WEIGHT_NAME "Medium"
SLANT "R"
SETWIDTH_NAME "Normal"
ADD_STYLE_NAME ""
PIXEL_SIZE 30
POINT_SIZE 300
RESOLUTION_X 72
RESOLUTION_Y 72
SPACING "P"
AVERAGE_WIDTH 131
CHARSET_REGISTRY "ISO10646"
CHARSET_ENCODING "1"
FONT_ASCENT 33
FONT_DESCENT 11
COPYRIGHT "Copyright (c) 2009-2011 by Accademia di Belle Arti di Urbino and students of MA course of Visual design. Some rights reserved."
_OTF_FONTFILE "TitilliumWeb-SemiBold.ttf"
_OTF_PSNAME "TitilliumWeb-SemiBold"
ENDPROPERTIES
CHARS 396
STARTCHAR 0020
ENCODING 32
SWIDTH 233 0
DWIDTH 7 0
BBX 0 0 0 0
BITMAP
ENDCHAR
STARTCHAR 0021
ENCODING 33
SWIDTH 266 0
DWIDTH 8 0
BBX 4 21 2 0
BITMAP
F0
F0
F0
F0
F0
F0
F0
F0
F0
F0
F0
70
60
60
00
00
00
F0
F0
F0
F0
ENDCHAR
STARTCHAR 0022
ENCODING 34
SWIDTH 400 0
DWIDTH 12 0
BBX 8 7 2 14
BITMAP
E7
E7
E7
E7
E7
E7
E7
ENDCHAR
STARTCHAR 0023
ENCODING 35
SWIDTH 566 0
DWIDTH 17 0
BBX 15 20 1 0
BITMAP
1C70
1C70
1C70
1C70
1C70
FFFE
FFFE
FFFE
1C70
1C70
1C70
1C70
FFFE
FFFE
FFFE
1C70
1C70
1C70
1C70
1C70
ENDCHAR
STARTCHAR 0024
ENCODING 36
SWIDTH 566 0
DWIDTH 17 0
BBX 13 28 2 -4
BITMAP
0180
0180
0180
0180
1FF0
7FF8
FFF0
F300
E300
E300
E300
F300
7F00
7FC0
1FF0
07F8
0678
0638
0638
0638
0678
FFF0
FFF0
FFC0
0C00
0C00
0C00
0C00
ENDCHAR
STARTCHAR 0025
ENCODING 37
SWIDTH 566 0
DWIDTH 17 0
BBX 15 22 1 -1
BITMAP
0020
7870
FC60
CC60
CEE0
CEC0
CCC0
FDC0
7D80
0180
0180
0300
0300
037C
067E
06E6
06E6
0CE6
0CE6
0C7E
187C
0800
ENDCHAR
STARTCHAR 0026
ENCODING 38
SWIDTH 700 0
DWIDTH 21 0
BBX 19 21 1 0
BITMAP
07F000
0FF800
1FFC00
1C1C00
1C1C00
1C1C00
1C3C00
1E3800
0FF800
1FE000
3FC380
79E380
F0F380
F07B80
E03F00
E01F00
F00F00
F01FC0
7FFFE0
3FF9E0
1FF040
ENDCHAR
STARTCHAR 0027
ENCODING 39
SWIDTH 233 0
DWIDTH 7 0
BBX 3 7 2 14
BITMAP
E0
E0
E0
E0
E0
E0
E0
ENDCHAR
STARTCHAR 0028
ENCODING 40
SWIDTH 300 0
DWIDTH 9 0
BBX 7 27 1 -4
BITMAP
0E
1C
1C
3C
38
38
78
78
78
70
70
F0
F0
F0
F0
F0
F0
70
70
78
78
78
38
3C
1C
1C
0E
ENDCHAR
STARTCHAR 0029
ENCODING 41
SWIDTH 300 0
DWIDTH 9 0
BBX 6 27 1 -4
BITMAP
E0
E0
70
70
78
78
38
3C
3C
3C
3C
1C
1C
1C
1C
1C
1C
3C
3C
3C
38
38
78
70
70
F0
E0
ENDCHAR
STARTCHAR 002A
ENCODING 42
SWIDTH 433 0
DWIDTH 13 0
BBX 10 10 1 11
BITMAP
0300
4600
F600
3E00
1FC0
1FC0
7E00
E600
4600
0300
ENDCHAR
STARTCHAR 002B
ENCODING 43
SWIDTH 566 0
DWIDTH 17 0
BBX 13 13 2 1
BITMAP
0700
0700
0700
0700
0700
FFF8
FFF8
FFF8
0700
0700
0700
0700
0700
ENDCHAR
STARTCHAR 002C
ENCODING 44
SWIDTH 233 0
DWIDTH 7 0
BBX 5 8 1 -4
BITMAP
78
70
70
70
E0
E0
E0
C0
ENDCHAR
STARTCHAR 002D
ENCODING 45
SWIDTH 433 0
DWIDTH 13 0
BBX 9 3 2 7
BITMAP
FF80
FF80
FF80
ENDCHAR
STARTCHAR 002E
ENCODING 46
SWIDTH 233 0
DWIDTH 7 0
BBX 3 4 2 0
BITMAP
E0
E0
E0
E0
ENDCHAR
STARTCHAR 002F
ENCODING 47
SWIDTH 433 0
DWIDTH 13 0
BBX 11 22 1 -1
BITMAP
00E0
00E0
01E0
01C0
01C0
0380
0380
0780
0700
0F00
0E00
0E00
1E00
1C00
3C00
3800
3800
7800
7000
F000
E000
2000
ENDCHAR
STARTCHAR 0030
ENCODING 48
SWIDTH 566 0
DWIDTH 17 0
BBX 15 20 1 0
BITMAP
0FE0
1FF0
3FF8
783C
701C
F01C
F01E
E01E
E01E
E01E
E01E
E01E
E01E
F01E
F01C
701C
783C
7FF8
3FF8
0FE0
ENDCHAR
STARTCHAR 0031
ENCODING 49
SWIDTH 566 0
DWIDTH 17 0
BBX 9 20 3 0
BITMAP
0380
0F80
1F80
7F80
FB80
E380
4380
0380
0380
0380
0380
0380
0380
0380
0380
0380
0380
0380
0380
0380
ENDCHAR
STARTCHAR 0032
ENCODING 50
SWIDTH 566 0
DWIDTH 17 0
BBX 13 20 2 0
BITMAP
7FC0
FFE0
FFF0
00F0
0070
0070
0070
0070
00F0
01E0
03C0
07C0
0780
0F00
1E00
3800
7000
FFF8
FFF8
FFF8
ENDCHAR
STARTCHAR 0033
ENCODING 51
SWIDTH 566 0
DWIDTH 17 0
BBX 13 20 2 0
BITMAP
7FC0
FFE0
FFF0
00F0
0070
0070
0070
00F0
3FE0
3FC0
3FE0
01F0
0078
0078
0078
0078
0078
FFF0
FFF0
FFC0
ENDCHAR
STARTCHAR 0034
ENCODING 52
SWIDTH 566 0
DWIDTH 17 0
BBX 15 20 1 0
BITMAP
0780
0780
0700
0F00
0E00
1E00
1E00
1C00
3C70
3870
7870
7070
7070
F070
FFFE
FFFE
0070
0070
0070
0070
ENDCHAR
STARTCHAR 0035
ENCODING 53
SWIDTH 566 0
DWIDTH 17 0
BBX 13 20 2 0
BITMAP
7FF8
7FF8
7FF8
E000
E000
E000
E000
E200
FFE0
FFF0
F9F8
0078
0038
0038
0038
0078
0078
FFF0
FFE0
FFC0
ENDCHAR
STARTCHAR 0036
ENCODING 54
SWIDTH 566 0
DWIDTH 17 0
BBX 15 20 1 0
BITMAP
07FC
1FFC
3FFC
3C00
7800
7000
7000
F100
FFF0
FFF8
FC7C
F01C
F01E
F01E
701E
701E
783C
3FFC
1FF8
0FF0
ENDCHAR
STARTCHAR 0037
ENCODING 55
SWIDTH 566 0
DWIDTH 17 0
BBX 13 20 2 0
BITMAP
FFF8
FFF8
FFF8
0078
0078
0070
00F0
00E0
01E0
01C0
03C0
0380
0780
0700
0700
0F00
0E00
1E00
1C00
3C00
ENDCHAR
STARTCHAR 0038
ENCODING 56
SWIDTH 566 0
DWIDTH 17 0
BBX 15 20 1 0
BITMAP
0FE0
3FF8
7FFC
F83C
F01E
F01E
F01C
783C
7FF8
3FF0
3FF8
7C7C
F01E
F01E
E01E
F01E
F03E
FFFC
7FF8
1FF0
ENDCHAR
STARTCHAR 0039
ENCODING 57
SWIDTH 566 0
DWIDTH 17 0
BBX 15 20 1 0
BITMAP
0FC0
3FF0
7FF8
7878
F03C
F01C
E01C
F01C
F01C
787C
7FFE
3FFC
0F1C
001C
001C
003C
0078
7FF8
7FF0
7FC0
ENDCHAR
STARTCHAR 003A
ENCODING 58
SWIDTH 233 0
DWIDTH 7 0
BBX 3 13 2 0
BITMAP
E0
E0
E0
E0
00
00
00
00
00
E0
E0
E0
E0
ENDCHAR
STARTCHAR 003B
ENCODING 59
SWIDTH 266 0
DWIDTH 8 0
BBX 5 17 1 -4
BITMAP
78
78
78
78
00
00
00
00
00
78
78
70
70
70
E0
E0
E0
ENDCHAR
STARTCHAR 003C
ENCODING 60
SWIDTH 566 0
DWIDTH 17 0
BBX 12 15 2 0
BITMAP
0010
0030
00F0
07F0
1FC0
7F00
FC00
F000
FC00
7F00
1FC0
03F0
00F0
0030
0010
ENDCHAR
STARTCHAR 003D
ENCODING 61
SWIDTH 566 0
DWIDTH 17 0
BBX 13 9 2 3
BITMAP
FFF8
FFF8
FFF8
0000
0000
0000
FFF8
FFF8
FFF8
ENDCHAR
STARTCHAR 003E
ENCODING 62
SWIDTH 566 0
DWIDTH 17 0
BBX 12 15 3 0
BITMAP
8000
C000
F000
FC00
3F00
0FE0
03F0
00F0
03F0
0FC0
7F00
FC00
F000
C000
8000
ENDCHAR
STARTCHAR 003F
ENCODING 63
SWIDTH 433 0
DWIDTH 13 0
BBX 11 21 1 0
BITMAP
3F00
FFC0
FFE0
81E0
00E0
00E0
00E0
01E0
03C0
07C0
0F00
1E00
1C00
1C00
1C00
0000
0000
1C00
1C00
1C00
1C00
ENDCHAR
STARTCHAR 0040
ENCODING 64
SWIDTH 966 0
DWIDTH 29 0
BBX 27 28 1 -6
BITMAP
001FC000
01FFF800
07FFFE00
0FC03F00
1F000F80
3E0003C0
3C0003C0
783F71C0
787FF1E0
70FFF0E0
70F070E0
F0E070E0
F0E070E0
F0E070E0
F0E070E0
F0E070E0
F0E070E0
F0E070E0
70F0F1E0
70FFFFC0
787FFF80
783F1F00
3C000000
3E000000
1F800000
0FFFC000
03FFC000
00FFE000
ENDCHAR
STARTCHAR 0041
ENCODING 65
SWIDTH 600 0
DWIDTH 18 0
BBX 16 21 1 0
BITMAP
07E0
0FF0
0FF0
0E70
0E70
1E78
1C38
1C38
1C38
3C3C
381C
381C
381C
781E
7FFE
7FFE
7FFE
F00F
F00F
E007
E007
ENDCHAR
STARTCHAR 0042
ENCODING 66
SWIDTH 600 0
DWIDTH 18 0
BBX 15 21 2 0
BITMAP
FF80
FFF8
FFFC
F07C
F01C
F01C
F01C
F01C
F03C
FFF8
FFF0
FFFC
F03C
F01E
F01E
F01E
F01E
F01E
FFFC
FFF8
FFF0
ENDCHAR
STARTCHAR 0043
ENCODING 67
SWIDTH 533 0
DWIDTH 16 0
BBX 13 21 2 0
BITMAP
0FE0
3FF8
7FF8
7808
F000
F000
E000
E000
E000
E000
E000
E000
E000
E000
E000
E000
F000
F800
7FF8
3FF8
1FF8
ENDCHAR
STARTCHAR 0044
ENCODING 68
SWIDTH 633 0
DWIDTH 19 0
BBX 16 21 2 0
BITMAP
FF00
FFF0
FFFC
F0FC
F01E
F00E
F00E
F00F
F00F
F00F
F00F
F00F
F00F
F00F
F00E
F00E
F01E
F03C
FFFC
FFF8
FFE0
ENDCHAR
STARTCHAR 0045
ENCODING 69
SWIDTH 566 0
DWIDTH 17 0
BBX 13 21 2 0
BITMAP
FFF8
FFF8
FFF8
F000
F000
F000
F000
F000
F000
FFF0
FFF0
FFF0
F000
F000
F000
F000
F000
F000
FFF8
FFF8
FFF8
ENDCHAR
STARTCHAR 0046
ENCODING 70
SWIDTH 533 0
DWIDTH 16 0
BBX 13 21 2 0
BITMAP
FFF8
FFF8
FFF8
F000
F000
F000
F000
F000
F000
F000
FFF0
FFF0
FFF0
F000
F000
F000
F000
F000
F000
F000
F000
ENDCHAR
STARTCHAR 0047
ENCODING 71
SWIDTH 600 0
DWIDTH 18 0
BBX 16 21 1 0
BITMAP
03F8
1FFF
3FFF
3E01
7800
7800
7000
7000
7000
F000
F03F
F03F
703F
700F
700F
700F
780F
3C0F
3FFF
1FFF
0FFF
ENDCHAR
STARTCHAR 0048
ENCODING 72
SWIDTH 666 0
DWIDTH 20 0
BBX 16 21 2 0
BITMAP
F007
F007
F007
F007
F007
F007
F007
F007
F007
FFFF
FFFF
FFFF
F007
F007
F007
F007
F007
F007
F007
F007
F007
ENDCHAR
STARTCHAR 0049
ENCODING 73
SWIDTH 266 0
DWIDTH 8 0
BBX 4 21 2 0
BITMAP
F0
F0
F0
F0
F0
F0
F0
F0
F0
F0
F0
F0
F0
F0
F0
F0
F0
F0
F0
F0
F0
ENDCHAR
STARTCHAR 004A
ENCODING 74
SWIDTH 300 0
DWIDTH 9 0
BBX 6 23 1 -2
BITMAP
3C
3C
3C
3C
3C
3C
3C
3C
3C
3C
3C
3C
3C
3C
3C
3C
3C
3C
3C
3C
F8
F8
F0
ENDCHAR
STARTCHAR 004B
ENCODING 75
SWIDTH 566 0
DWIDTH 17 0
BBX 15 21 2 0
BITMAP
F01E
F03C
F03C
F038
F078
F070
F0F0
F0E0
F1E0
F1C0
FFC0
FFC0
FDE0
F1E0
F0F0
F0F0
F078
F078
F03C
F03C
F01E
ENDCHAR
STARTCHAR 004C
ENCODING 76
SWIDTH 466 0
DWIDTH 14 0
BBX 12 21 2 0
BITMAP
F000
F000
F000
F000
F000
F000
F000
F000
F000
F000
F000
F000
F000
F000
F000
F000
F000
F000
FFF0
FFF0
FFF0
ENDCHAR
STARTCHAR 004D
ENCODING 77
SWIDTH 866 0
DWIDTH 26 0
BBX 21 21 2 0
BITMAP
FC01F8
FC01F8
FE01F8
FE03F8
FE03B8
F703B8
F703B8
F70738
F70738
F38738
F38E38
F38E38
F1CE38
F1CE38
F1DC38
F0DC38
F0FC38
F0F838
F07838
F07838
F00038
ENDCHAR
STARTCHAR 004E
ENCODING 78
SWIDTH 700 0
DWIDTH 21 0
BBX 16 21 2 0
BITMAP
FC07
FE07
FE07
FE07
F707
F707
F707
F387
F387
F387
F1C7
F1C7
F1C7
F0E7
F0E7
F077
F077
F077
F03F
F03F
F03F
ENDCHAR
STARTCHAR 004F
ENCODING 79
SWIDTH 666 0
DWIDTH 20 0
BBX 17 21 1 0
BITMAP
03F000
0FFC00
1FFE00
3C1F00
780F00
780780
700780
700780
700380
F00380
F00380
F00380
700380
700380
700780
700780
780700
3C0F00
3FFF00
1FFE00
0FF800
ENDCHAR
STARTCHAR 0050
ENCODING 80
SWIDTH 600 0
DWIDTH 18 0
BBX 15 21 2 0
BITMAP
FF00
FFF0
FFF8
F07C
F01E
F01E
F01E
F01E
F01E
F01E
F01C
F07C
FFF8
FFF0
FFC0
F000
F000
F000
F000
F000
F000
ENDCHAR
STARTCHAR 0051
ENCODING 81
SWIDTH 666 0
DWIDTH 20 0
BBX 17 26 1 -5
BITMAP
03F000
0FFC00
1FFE00
3C1F00
780F00
780780
700780
700780
700380
F00380
F00380
F00380
F00380
700380
700780
700780
780700
3C0F00
3FFF00
1FFE00
0FFC00
001E00
001E00
000F00
000700
000400
ENDCHAR
STARTCHAR 0052
ENCODING 82
SWIDTH 633 0
DWIDTH 19 0
BBX 15 21 2 0
BITMAP
FF80
FFF8
FFFC
F07C
F01E
F01E
F00E
F00E
F01E
F01E
F03C
FFFC
FFF8
FFF0
F070
F078
F038
F03C
F03C
F01E
F01E
ENDCHAR
STARTCHAR 0053
ENCODING 83
SWIDTH 533 0
DWIDTH 16 0
BBX 14 21 1 0
BITMAP
0FF0
3FFC
7FF8
7804
F000
F000
F000
F000
7C00
7FC0
1FF0
07F8
00FC
003C
001C
001C
003C
003C
7FF8
7FF0
FFE0
ENDCHAR
STARTCHAR 0054
ENCODING 84
SWIDTH 533 0
DWIDTH 16 0
BBX 15 21 0 0
BITMAP
FFFE
FFFE
FFFE
03C0
03C0
03C0
03C0
03C0
03C0
03C0
03C0
03C0
03C0
03C0
03C0
03C0
03C0
03C0
03C0
03C0
03C0
ENDCHAR
STARTCHAR 0055
ENCODING 85
SWIDTH 666 0
DWIDTH 20 0
BBX 15 21 2 0
BITMAP
F00E
F00E
F00E
F00E
F00E
F00E
F00E
F00E
F00E
F00E
F00E
F00E
F00E
F00E
F00E
F00E
F00E
781E
7FFC
3FFC
1FF0
ENDCHAR
STARTCHAR 0056
ENCODING 86
SWIDTH 600 0
DWIDTH 18 0
BBX 16 21 1 0
BITMAP
E007
E00F
F00F
F00E
700E
700E
701E
781E
381C
381C
383C
3C3C
1C38
1C38
1C78
1E78
0E70
0E70
0FF0
0FF0
07E0
ENDCHAR
STARTCHAR 0057
ENCODING 87
SWIDTH 900 0
DWIDTH 27 0
BBX 26 21 1 0
BITMAP
E00003C0
E03E0380
F03E0380
F03E0380
703E0780
70370780
70770700
70770700
78730700
78738700
38E38F00
38E38E00
38E38E00
38E18E00
3CE1CE00
1DC1CE00
1DC1DC00
1DC1DC00
1FC0FC00
1F80FC00
0F80FC00
ENDCHAR
STARTCHAR 0058
ENCODING 88
SWIDTH 566 0
DWIDTH 17 0
BBX 17 21 0 0
BITMAP
F00780
780F00
380E00
3C1E00
1C1C00
1E3C00
0E3800
0F7000
07F000
03E000
03E000
03E000
03E000
077000
0F7800
0E3800
1E3C00
1C1C00
381E00
780F00
F00780
ENDCHAR
STARTCHAR 0059
ENCODING 89
SWIDTH 533 0
DWIDTH 16 0
BBX 16 21 0 0
BITMAP
F007
700F
780E
381E
3C1C
1C3C
1E38
0E78
0F70
07F0
07E0
03C0
01C0
01C0
01C0
01C0
01C0
01C0
01C0
01C0
01C0
ENDCHAR
STARTCHAR 005A
ENCODING 90
SWIDTH 533 0
DWIDTH 16 0
BBX 14 21 1 0
BITMAP
FFFC
FFFC
FFFC
003C
0078
0078
00F0
01E0
01C0
03C0
0780
0700
0F00
1E00
1C00
3C00
7800
F000
FFFC
FFFC
FFFC
ENDCHAR
STARTCHAR 005B
ENCODING 91
SWIDTH 333 0
DWIDTH 10 0
BBX 7 26 2 -4
BITMAP
FE
FE
E0
E0
E0
E0
E0
E0
E0
E0
E0
E0
E0
E0
E0
E0
E0
E0
E0
E0
E0
E0
E0
FE
FE
FE
ENDCHAR
STARTCHAR 005C
ENCODING 92
SWIDTH 466 0
DWIDTH 14 0
BBX 12 22 1 -1
BITMAP
6000
F000
7000
7800
3800
3800
3C00
1C00
1E00
0E00
0F00
0700
0780
0380
0380
03C0
01C0
01E0
00E0
00F0
0070
0040
ENDCHAR
STARTCHAR 005D
ENCODING 93
SWIDTH 333 0
DWIDTH 10 0
BBX 7 26 1 -4
BITMAP
FE
FE
0E
0E
0E
0E
0E
0E
0E
0E
0E
0E
0E
0E
0E
0E
0E
0E
0E
0E
0E
0E
0E
FE
FE
FE
ENDCHAR
STARTCHAR 005E
ENCODING 94
SWIDTH 566 0
DWIDTH 17 0
BBX 14 11 1 9
BITMAP
0380
0780
07C0
0FC0
1EE0
1CF0
3C70
3878
7838
703C
F01C
ENDCHAR
STARTCHAR 005F
ENCODING 95
SWIDTH 633 0
DWIDTH 19 0
BBX 13 3 3 -5
BITMAP
FFF8
FFF8
FFF8
ENDCHAR
STARTCHAR 0060
ENCODING 96
SWIDTH 266 0
DWIDTH 8 0
BBX 8 5 0 17
BITMAP
E0
F8
FF
1E
02
ENDCHAR
STARTCHAR 0061
ENCODING 97
SWIDTH 500 0
DWIDTH 15 0
BBX 13 15 1 0
BITMAP
7FC0
7FE0
7DF0
0070
0070
0070
1FF0
7FF0
F870
F070
E070
E070
F3F8
7FF8
3FB8
ENDCHAR
STARTCHAR 0062
ENCODING 98
SWIDTH 533 0
DWIDTH 16 0
BBX 13 21 2 0
BITMAP
E000
E000
E000
E000
E000
E000
FFC0
FFE0
FFF0
E070
E078
E078
E078
E078
E078
E078
E078
E0F0
FFF0
FFE0
FFC0
ENDCHAR
STARTCHAR 0063
ENCODING 99
SWIDTH 433 0
DWIDTH 13 0
BBX 11 15 1 0
BITMAP
1FE0
3FE0
7FE0
7800
7000
F000
F000
F000
F000
F000
7000
7800
7FE0
3FE0
1FE0
ENDCHAR
STARTCHAR 0064
ENCODING 100
SWIDTH 533 0
DWIDTH 16 0
BBX 13 21 1 0
BITMAP
0038
0038
0038
0038
0038
0038
1FF8
3FF8
7FF8
7838
7038
F038
F038
F038
F038
F038
F038
7038
7FF8
3FF8
1FB8
ENDCHAR
STARTCHAR 0065
ENCODING 101
SWIDTH 500 0
DWIDTH 15 0
BBX 13 15 1 0
BITMAP
1FC0
3FF0
7CF0
7078
7038
F038
FFF8
FFF8
FFF8
F000
F000
7000
7FF8
3FF8
1FF8
ENDCHAR
STARTCHAR 0066
ENCODING 102
SWIDTH 333 0
DWIDTH 10 0
BBX 9 22 1 0
BITMAP
0600
1F80
3F80
3C00
3800
3800
3800
FF80
FF80
FF80
3800
3800
3800
3800
3800
3800
3800
3800
3800
3800
3800
3800
ENDCHAR
STARTCHAR 0067
ENCODING 103
SWIDTH 533 0
DWIDTH 16 0
BBX 14 22 1 -7
BITMAP
1FFC
3FFC
78FC
7070
F078
F070
7070
7DF0
3FF0
1FC0
3800
3800
3E00
3FF8
3FFC
70FC
F01C
E01C
F03C
7FFC
7FF8
1FE0
ENDCHAR
STARTCHAR 0068
ENCODING 104
SWIDTH 533 0
DWIDTH 16 0
BBX 13 21 2 0
BITMAP
E000
E000
E000
E000
E000
E000
EFE0
FFF0
FFF0
E070
E070
E070
E078
E078
E078
E078
E078
E078
E078
E078
E078
ENDCHAR
STARTCHAR 0069
ENCODING 105
SWIDTH 233 0
DWIDTH 7 0
BBX 3 21 2 0
BITMAP
E0
E0
E0
00
00
00
E0
E0
E0
E0
E0
E0
E0
E0
E0
E0
E0
E0
E0
E0
E0
ENDCHAR
STARTCHAR 006A
ENCODING 106
SWIDTH 233 0
DWIDTH 7 0
BBX 6 28 -1 -7
BITMAP
1C
1C
1C
00
00
00
1C
1C
1C
1C
1C
1C
1C
1C
1C
1C
1C
1C
1C
1C
1C
1C
1C
3C
78
F8
E0
40
ENDCHAR
STARTCHAR 006B
ENCODING 107
SWIDTH 500 0
DWIDTH 15 0
BBX 13 21 2 0
BITMAP
E000
E000
E000
E000
E000
E000
E0F0
E0E0
E1E0
E1C0
E3C0
E780
FF00
FF00
FF80
E380
E3C0
E1E0
E1E0
E0F0
E078
ENDCHAR
STARTCHAR 006C
ENCODING 108
SWIDTH 266 0
DWIDTH 8 0
BBX 3 21 2 0
BITMAP
E0
E0
E0
E0
E0
E0
E0
E0
E0
E0
E0
E0
E0
E0
E0
E0
E0
E0
E0
E0
E0
ENDCHAR
STARTCHAR 006D
ENCODING 109
SWIDTH 833 0
DWIDTH 25 0
BBX 21 15 2 0
BITMAP
EFCFE0
FFFFF0
FFFFF8
E0F078
E07038
E07038
E07038
E07038
E07038
E07038
E07038
E07038
E07038
E07038
E07038
ENDCHAR
STARTCHAR 006E
ENCODING 110
SWIDTH 533 0
DWIDTH 16 0
BBX 13 15 2 0
BITMAP
EFE0
FFF0
FFF0
E070
E070
E070
E078
E078
E078
E078
E078
E078
E078
E078
E078
ENDCHAR
STARTCHAR 006F
ENCODING 111
SWIDTH 533 0
DWIDTH 16 0
BBX 14 15 1 0
BITMAP
1FE0
3FF0
7FF8
7038
7038
F03C
F03C
F03C
F03C
F03C
7038
7038
7FF8
3FF0
1FE0
ENDCHAR
STARTCHAR 0070
ENCODING 112
SWIDTH 533 0
DWIDTH 16 0
BBX 13 21 2 -6
BITMAP
EFC0
FFE0
FFF0
E070
E078
E078
E078
E078
E078
E078
E078
E070
FFF0
FFE0
FFC0
E000
E000
E000
E000
E000
E000
ENDCHAR
STARTCHAR 0071
ENCODING 113
SWIDTH 533 0
DWIDTH 16 0
BBX 13 21 1 -6
BITMAP
1FF8
3FF8
7EF8
7838
7038
F038
F038
F038
F038
F038
F038
7038
7FF8
3FF8
1FF8
0038
0038
0038
0038
0038
0038
ENDCHAR
STARTCHAR 0072
ENCODING 114
SWIDTH 366 0
DWIDTH 11 0
BBX 8 15 2 0
BITMAP
E3
EF
FF
FC
E0
E0
E0
E0
E0
E0
E0
E0
E0
E0
E0
ENDCHAR
STARTCHAR 0073
ENCODING 115
SWIDTH 466 0
DWIDTH 14 0
BBX 12 15 1 0
BITMAP
3FE0
7FE0
FFE0
F000
E000
F800
7F80
7FE0
0FF0
00F0
0070
00F0
FFF0
FFE0
FFC0
ENDCHAR
STARTCHAR 0074
ENCODING 116
SWIDTH 366 0
DWIDTH 11 0
BBX 9 19 1 0
BITMAP
3800
3800
3800
3800
FF80
FF80
FF80
3800
3800
3800
3800
3800
3800
3800
3800
3800
3F80
3F80
1F80
ENDCHAR
STARTCHAR 0075
ENCODING 117
SWIDTH 533 0
DWIDTH 16 0
BBX 12 15 2 0
BITMAP
E070
E070
E070
E070
E070
E070
E070
E070
E070
E070
E070
F070
FFF0
7FF0
3F70
ENDCHAR
STARTCHAR 0076
ENCODING 118
SWIDTH 500 0
DWIDTH 15 0
BBX 13 15 1 0
BITMAP
E038
E078
F078
F070
7070
70F0
78E0
38E0
38E0
39E0
39C0
1DC0
1FC0
1FC0
1F80
ENDCHAR
STARTCHAR 0077
ENCODING 119
SWIDTH 766 0
DWIDTH 23 0
BBX 21 15 1 0
BITMAP
E07038
E07038
E0F878
70F878
70F870
70D870
71DC70
71DC70
39DCE0
398CE0
3B8EE0
3B8EE0
3F8FE0
1F87C0
1F07C0
ENDCHAR
STARTCHAR 0078
ENCODING 120
SWIDTH 466 0
DWIDTH 14 0
BBX 12 15 1 0
BITMAP
E070
F0F0
71E0
39C0
3FC0
1F80
1F00
0F00
1F80
1F80
3FC0
39C0
71E0
F0F0
E070
ENDCHAR
STARTCHAR 0079
ENCODING 121
SWIDTH 500 0
DWIDTH 15 0
BBX 13 21 1 -6
BITMAP
E038
E038
E078
7070
7070
7070
70E0
38E0
38E0
39E0
3DC0
1DC0
1FC0
1FC0
1F80
0380
0380
0780
0700
0700
0F00
ENDCHAR
STARTCHAR 007A
ENCODING 122
SWIDTH 466 0
DWIDTH 14 0
BBX 11 15 1 0
BITMAP
FFE0
FFE0
FFE0
01E0
03C0
0780
0780
0F00
1E00
3C00
7800
7800
FFE0
FFE0
FFE0
ENDCHAR
STARTCHAR 007B
ENCODING 123
SWIDTH 366 0
DWIDTH 11 0
BBX 9 27 1 -4
BITMAP
0180
0F80
1F80
1E00
1C00
1C00
1C00
1C00
1C00
1C00
1C00
3C00
F800
E000
F800
7C00
3C00
1C00
1C00
1C00
1C00
1C00
1C00
1E00
1F80
0F80
0380
ENDCHAR
STARTCHAR 007C
ENCODING 124
SWIDTH 266 0
DWIDTH 8 0
BBX 3 27 2 -6
BITMAP
E0
E0
E0
E0
E0
E0
E0
E0
E0
E0
E0
E0
E0
E0
E0
E0
E0
E0
E0
E0
E0
E0
E0
E0
E0
E0
E0
ENDCHAR
STARTCHAR 007D
ENCODING 125
SWIDTH 366 0
DWIDTH 11 0
BBX 9 27 1 -4
BITMAP
C000
F800
F800
3C00
1C00
1C00
1C00
1C00
1C00
1C00
1C00
1E00
0F80
0780
0F80
1F00
1C00
1C00
1C00
1C00
1C00
1C00
1C00
3C00
FC00
F800
E000
ENDCHAR
STARTCHAR 007E
ENCODING 126
SWIDTH 566 0
DWIDTH 17 0
BBX 13 5 2 5
BITMAP
3C08
FFB8
FFF8
C7F0
0040
ENDCHAR
STARTCHAR 00A0
ENCODING 160
SWIDTH 233 0
DWIDTH 7 0
BBX 0 0 0 0
BITMAP
ENDCHAR
STARTCHAR 00A1
ENCODING 161
SWIDTH 233 0
DWIDTH 7 0
BBX 3 21 2 -6
BITMAP
E0
E0
E0
E0
00
00
00
E0
E0
E0
E0
E0
E0
E0
E0
E0
E0
E0
E0
E0
E0
ENDCHAR
STARTCHAR 00A2
ENCODING 162
SWIDTH 566 0
DWIDTH 17 0
BBX 11 19 3 -2
BITMAP
0700
0700
0700
1FE0
7FE0
7FE0
F000
E000
E000
E000
E000
E000
F000
7FE0
7FE0
1FE0
0700
0700
0700
ENDCHAR
STARTCHAR 00A3
ENCODING 163
SWIDTH 566 0
DWIDTH 17 0
BBX 13 20 2 0
BITMAP
07F0
1FF0
1FF0
1C00
1C00
1C00
1C00
7FE0
7FE0
7FE0
1C00
1C00
1C00
1C00
1C00
1C00
1C00
FFF0
FFF0
FFF8
ENDCHAR
STARTCHAR 00A4
ENCODING 164
SWIDTH 566 0
DWIDTH 17 0
BBX 15 15 1 0
BITMAP
2008
701C
FFFE
7FFC
3FF8
3838
3838
3038
3838
3878
3FF8
7FFC
FFFE
7018
2008
ENDCHAR
STARTCHAR 00A5
ENCODING 165
SWIDTH 566 0
DWIDTH 17 0
BBX 16 20 0 0
BITMAP
F007
780F
3C1E
3C1E
1E3C
1E78
0F78
07F0
3FFE
3FFE
3FFE
01C0
01C0
3FFE
3FFE
3FFE
01C0
01C0
01C0
01C0
ENDCHAR
STARTCHAR 00A6
ENCODING 166
SWIDTH 266 0
DWIDTH 8 0
BBX 3 27 2 -6
BITMAP
E0
E0
E0
E0
E0
E0
E0
E0
E0
E0
E0
00
00
00
00
00
E0
E0
E0
E0
E0
E0
E0
E0
E0
E0
E0
ENDCHAR
STARTCHAR 00A7
ENCODING 167
SWIDTH 500 0
DWIDTH 15 0
BBX 13 24 1 -5
BITMAP
1FF0
3FF0
7FF0
7000
7000
7000
7C00
7F80
3FF0
77F0
7078
F078
F078
F878
7FF0
3FF0
07F0
00F0
0070
0078
0070
7FF0
7FE0
7FC0
ENDCHAR
STARTCHAR 00A8
ENCODING 168
SWIDTH 266 0
DWIDTH 8 0
BBX 10 4 -1 18
BITMAP
E1C0
E1C0
E1C0
E1C0
ENDCHAR
STARTCHAR 00A9
ENCODING 169
SWIDTH 633 0
DWIDTH 19 0
BBX 16 16 2 5
BITMAP
0FF0
3C38
700C
63C6
C7C6
CFC2
8E03
8E03
8E03
8E03
CFC2
C7C6
63C6
701C
3C78
0FF0
ENDCHAR
STARTCHAR 00AA
ENCODING 170
SWIDTH 400 0
DWIDTH 12 0
BBX 10 10 1 10
BITMAP
3E00
7F00
7F80
0380
3F80
7F80
E380
E380
7FC0
3DC0
ENDCHAR
STARTCHAR 00AB
ENCODING 171
SWIDTH 566 0
DWIDTH 17 0
BBX 14 12 1 1
BITMAP
0204
0E0C
1E1C
3C7C
F8F0
E0E0
F0F0
7878
3E3C
0E0C
0604
0204
ENDCHAR
STARTCHAR 00AC
ENCODING 172
SWIDTH 566 0
DWIDTH 17 0
BBX 13 8 2 3
BITMAP
FFF8
FFF8
FFF8
0038
0038
0038
0038
0038
ENDCHAR
STARTCHAR 00AE
ENCODING 174
SWIDTH 633 0
DWIDTH 19 0
BBX 16 16 2 5
BITMAP
0FF0
3C38
700C
6F86
CFE6
CE62
8E63
8E63
8FE3
8FC3
CEE2
CE66
6E66
700C
3C78
0FF0
ENDCHAR
STARTCHAR 00AF
ENCODING 175
SWIDTH 266 0
DWIDTH 8 0
BBX 8 3 0 18
BITMAP
FF
FF
FF
ENDCHAR
STARTCHAR 00B0
ENCODING 176
SWIDTH 566 0
DWIDTH 17 0
BBX 9 9 4 12
BITMAP
3C00
7F00
E300
C180
C180
C180
E300
7F00
3C00
ENDCHAR
STARTCHAR 00B1
ENCODING 177
SWIDTH 566 0
DWIDTH 17 0
BBX 13 14 2 1
BITMAP
0700
0700
0700
0700
FFF8
FFF8
FFF8
0700
0700
0700
0000
FFF8
FFF8
FFF8
ENDCHAR
STARTCHAR 00B2
ENCODING 178
SWIDTH 266 0
DWIDTH 8 0
BBX 6 10 1 14
BITMAP
F8
FC
FC
1C
1C
38
70
FC
FC
FC
ENDCHAR
STARTCHAR 00B3
ENCODING 179
SWIDTH 266 0
DWIDTH 8 0
BBX 7 10 1 14
BITMAP
F8
FC
9C
1C
7C
7C
0E
9E
FC
F8
ENDCHAR
STARTCHAR 00B4
ENCODING 180
SWIDTH 266 0
DWIDTH 8 0
BBX 9 5 0 17
BITMAP
0700
1F00
FF80
7800
4000
ENDCHAR
STARTCHAR 00B5
ENCODING 181
SWIDTH 566 0
DWIDTH 17 0
BBX 13 21 2 -6
BITMAP
E078
E078
E078
E078
E078
E078
E078
E078
E078
E078
F078
F078
FFF8
FFF8
FFF8
E000
E000
E000
E000
E000
E000
ENDCHAR
STARTCHAR 00B6
ENCODING 182
SWIDTH 600 0
DWIDTH 18 0
BBX 15 21 1 0
BITMAP
07FE
3FFE
7FFE
FF9C
FF9C
FF9C
FF9C
FF9C
FF9C
7F9C
3F9C
1F9C
039C
039C
039C
039C
039C
039C
039C
039C
039C
ENDCHAR
STARTCHAR 00B7
ENCODING 183
SWIDTH 233 0
DWIDTH 7 0
BBX 3 4 2 6
BITMAP
E0
E0
E0
E0
ENDCHAR
STARTCHAR 00B8
ENCODING 184
SWIDTH 266 0
DWIDTH 8 0
BBX 6 7 1 -7
BITMAP
40
70
7C
1C
1C
FC
F8
ENDCHAR
STARTCHAR 00B9
ENCODING 185
SWIDTH 266 0
DWIDTH 8 0
BBX 5 10 1 14
BITMAP
38
78
F8
F8
38
38
38
38
38
38
ENDCHAR
STARTCHAR 00BA
ENCODING 186
SWIDTH 400 0
DWIDTH 12 0
BBX 10 10 1 10
BITMAP
1E00
7F80
7F80
73C0
E1C0
E1C0
E1C0
7F80
7F80
3E00
ENDCHAR
STARTCHAR 00BB
ENCODING 187
SWIDTH 566 0
DWIDTH 17 0
BBX 14 12 2 1
BITMAP
8080
C0C0
E0E0
F8F8
3C3C
1C1C
3C3C
7878
F0F0
E0E0
8080
8100
ENDCHAR
STARTCHAR 00BC
ENCODING 188
SWIDTH 533 0
DWIDTH 16 0
BBX 14 27 1 -3
BITMAP
1800
7800
F800
D800
1810
1818
1830
1830
1860
18C0
00C0
0180
0180
0300
0600
0600
0C00
1810
1860
30E0
30E0
60FC
C1DC
C1FC
01FC
01FC
001C
ENDCHAR
STARTCHAR 00BD
ENCODING 189
SWIDTH 533 0
DWIDTH 16 0
BBX 14 27 1 -3
BITMAP
1800
7800
F800
5800
1810
1818
1830
1830
1860
18C0
00C0
0180
0180
0300
0600
0600
0C00
1870
19FC
30FC
301C
601C
C038
C070
00E0
01FC
01FC
ENDCHAR
STARTCHAR 00BE
ENCODING 190
SWIDTH 566 0
DWIDTH 17 0
BBX 15 27 1 -3
BITMAP
FC00
FE00
8E00
0E00
7C08
7E1C
0E18
CE30
FE30
FC60
00C0
00C0
0180
0300
0300
0600
0600
0C00
1870
1870
30E0
60EC
60EC
C0FE
00FE
00FE
000C
ENDCHAR
STARTCHAR 00BF
ENCODING 191
SWIDTH 433 0
DWIDTH 13 0
BBX 11 21 1 -6
BITMAP
0700
0700
0700
0700
0000
0000
0700
0700
0700
0F00
1E00
3C00
7800
F000
F000
E000
E000
F020
FFE0
7FE0
1F80
ENDCHAR
STARTCHAR 00C0
ENCODING 192
SWIDTH 600 0
DWIDTH 18 0
BBX 16 28 1 0
BITMAP
0C00
0F00
0FE0
03F0
0060
0000
0000
07E0
0FF0
0FF0
0E70
0E70
1E78
1C38
1C38
1C38
3C3C
381C
381C
381C
781E
7FFE
7FFE
7FFE
F00F
F00F
E007
E007
ENDCHAR
STARTCHAR 00C1
ENCODING 193
SWIDTH 600 0
DWIDTH 18 0
BBX 16 28 1 0
BITMAP
0020
01F0
07F0
0FC0
0600
0000
0000
07E0
0FF0
0FF0
0E70
0E70
1E78
1C38
1C38
1C38
3C3C
381C
381C
381C
781E
7FFE
7FFE
7FFE
F00F
F00F
E007
E007
ENDCHAR
STARTCHAR 00C2
ENCODING 194
SWIDTH 600 0
DWIDTH 18 0
BBX 16 28 1 0
BITMAP
0380
03C0
07E0
0E70
1C38
0000
0000
07E0
0FF0
0FF0
0E70
0E70
1E78
1C38
1C38
1C38
3C3C
381C
381C
381C
781E
7FFE
7FFE
7FFE
F00F
F00F
E007
E007
ENDCHAR
STARTCHAR 00C3
ENCODING 195
SWIDTH 600 0
DWIDTH 18 0
BBX 16 28 1 0
BITMAP
0608
1F98
3FF8
13F8
1060
0000
0000
07E0
0FF0
0FF0
0E70
0E70
1E78
1C38
1C38
1C38
3C3C
381C
381C
381C
781E
7FFE
7FFE
7FFE
F00F
F00F
E007
E007
ENDCHAR
STARTCHAR 00C4
ENCODING 196
SWIDTH 600 0
DWIDTH 18 0
BBX 16 27 1 0
BITMAP
1C38
1C38
1C38
1C38
0000
0000
07E0
0FF0
0FF0
0E70
0E70
1E78
1C38
1C38
1C38
3C3C
381C
381C
381C
781E
7FFE
7FFE
7FFE
F00F
F00F
E007
E007
ENDCHAR
STARTCHAR 00C5
ENCODING 197
SWIDTH 600 0
DWIDTH 18 0
BBX 16 25 1 0
BITMAP
07E0
0FF0
0C30
0C30
0FF0
0FF0
0FF0
0E70
0E70
1E78
1C38
1C38
1C38
3C3C
381C
381C
381C
781E
7FFE
7FFE
7FFE
F00F
F00F
E007
E007
ENDCHAR
STARTCHAR 00C6
ENCODING 198
SWIDTH 866 0
DWIDTH 26 0
BBX 25 21 0 0
BITMAP
03FFFF80
03FFFF80
03FFFF80
038E0000
078E0000
070E0000
070E0000
0F0E0000
0E0E0000
0E0FFE00
1E0FFE00
1E0FFE00
1C0E0000
1C0E0000
3FFE0000
3FFE0000
3FFE0000
780E0000
780FFF80
700FFF80
F00FFF80
ENDCHAR
STARTCHAR 00C7
ENCODING 199
SWIDTH 533 0
DWIDTH 16 0
BBX 13 28 2 -7
BITMAP
0FE0
3FF8
7FF8
7808
F000
F000
E000
E000
E000
E000
E000
E000
E000
E000
E000
E000
F000
F800
7FF8
3FF8
1FF8
0300
0380
03E0
00E0
00E0
07E0
07C0
ENDCHAR
STARTCHAR 00C8
ENCODING 200
SWIDTH 566 0
DWIDTH 17 0
BBX 13 28 2 0
BITMAP
1800
1E00
1FC0
07E0
00C0
0000
0000
FFF8
FFF8
FFF8
F000
F000
F000
F000
F000
F000
FFF0
FFF0
FFF0
F000
F000
F000
F000
F000
F000
FFF8
FFF8
FFF8
ENDCHAR
STARTCHAR 00C9
ENCODING 201
SWIDTH 566 0
DWIDTH 17 0
BBX 13 28 2 0
BITMAP
00C0
03E0
0FE0
1F80
1C00
0000
0000
FFF8
FFF8
FFF8
F000
F000
F000
F000
F000
F000
FFF0
FFF0
FFF0
F000
F000
F000
F000
F000
F000
FFF8
FFF8
FFF8
ENDCHAR
STARTCHAR 00CA
ENCODING 202
SWIDTH 566 0
DWIDTH 17 0
BBX 13 28 2 0
BITMAP
0700
0F80
0FC0
1CE0
7870
0000
0000
FFF8
FFF8
FFF8
F000
F000
F000
F000
F000
F000
FFF0
FFF0
FFF0
F000
F000
F000
F000
F000
F000
FFF8
FFF8
FFF8
ENDCHAR
STARTCHAR 00CB
ENCODING 203
SWIDTH 566 0
DWIDTH 17 0
BBX 13 27 2 0
BITMAP
38F0
38F0
38F0
38F0
0000
0000
FFF8
FFF8
FFF8
F000
F000
F000
F000
F000
F000
FFF0
FFF0
FFF0
F000
F000
F000
F000
F000
F000
FFF8
FFF8
FFF8
ENDCHAR
STARTCHAR 00CC
ENCODING 204
SWIDTH 266 0
DWIDTH 8 0
BBX 8 28 -1 0
BITMAP
60
78
FF
1F
07
00
00
1E
1E
1E
1E
1E
1E
1E
1E
1E
1E
1E
1E
1E
1E
1E
1E
1E
1E
1E
1E
1E
ENDCHAR
STARTCHAR 00CD
ENCODING 205
SWIDTH 266 0
DWIDTH 8 0
BBX 8 28 0 0
BITMAP
03
0F
7F
FC
60
00
00
3C
3C
3C
3C
3C
3C
3C
3C
3C
3C
3C
3C
3C
3C
3C
3C
3C
3C
3C
3C
3C
ENDCHAR
STARTCHAR 00CE
ENCODING 206
SWIDTH 266 0
DWIDTH 8 0
BBX 10 28 -1 0
BITMAP
1C00
1E00
3F00
7380
E1C0
0000
0000
1E00
1E00
1E00
1E00
1E00
1E00
1E00
1E00
1E00
1E00
1E00
1E00
1E00
1E00
1E00
1E00
1E00
1E00
1E00
1E00
1E00
ENDCHAR
STARTCHAR 00CF
ENCODING 207
SWIDTH 266 0
DWIDTH 8 0
BBX 10 27 -1 0
BITMAP
E1C0
E1C0
E1C0
E1C0
0000
0000
1E00
1E00
1E00
1E00
1E00
1E00
1E00
1E00
1E00
1E00
1E00
1E00
1E00
1E00
1E00
1E00
1E00
1E00
1E00
1E00
1E00
ENDCHAR
STARTCHAR 00D0
ENCODING 208
SWIDTH 633 0
DWIDTH 19 0
BBX 17 21 1 0
BITMAP
7FE000
7FFC00
7FFE00
787F00
780F00
780700
780780
780780
780780
FF8780
FF8780
FF8780
780780
780780
780700
780700
780F00
783F00
7FFE00
7FFC00
7FF000
ENDCHAR
STARTCHAR 00D1
ENCODING 209
SWIDTH 700 0
DWIDTH 21 0
BBX 16 28 2 0
BITMAP
0608
1FC8
1FFC
19F8
1030
0000
0000
FC07
FE07
FE07
FE07
F707
F707
F707
F387
F387
F387
F1C7
F1C7
F1C7
F0E7
F0E7
F077
F077
F077
F03F
F03F
F03F
ENDCHAR
STARTCHAR 00D2
ENCODING 210
SWIDTH 666 0
DWIDTH 20 0
BBX 17 28 1 0
BITMAP
060000
078000
0FF800
01F000
003000
000000
000000
03F000
0FFC00
1FFE00
3C1F00
780F00
780780
700780
700780
700380
F00380
F00380
F00380
700380
700380
700780
700780
780700
3C0F00
3FFF00
1FFE00
0FF800
ENDCHAR
STARTCHAR 00D3
ENCODING 211
SWIDTH 666 0
DWIDTH 20 0
BBX 17 28 1 0
BITMAP
003000
00F000
0FF800
07C000
060000
000000
000000
03F000
0FFC00
1FFE00
3C1F00
780F00
780780
700780
700780
700380
F00380
F00380
F00380
700380
700380
700780
700780
780700
3C0F00
3FFF00
1FFE00
0FF800
ENDCHAR
STARTCHAR 00D4
ENCODING 212
SWIDTH 666 0
DWIDTH 20 0
BBX 17 28 1 0
BITMAP
01C000
03E000
03F000
073800
1E1C00
000000
000000
03F000
0FFC00
1FFE00
3C1F00
780F00
780780
700780
700780
700380
F00380
F00380
F00380
700380
700380
700780
700780
780700
3C0F00
3FFF00
1FFE00
0FF800
ENDCHAR
STARTCHAR 00D5
ENCODING 213
SWIDTH 666 0
DWIDTH 20 0
BBX 17 28 1 0
BITMAP
030400
0FCC00
1FFC00
09FC00
083000
000000
000000
03F000
0FFC00
1FFE00
3C1F00
780F00
780780
700780
700780
700380
F00380
F00380
F00380
700380
700380
700780
700780
780700
3C0F00
3FFF00
1FFE00
0FF800
ENDCHAR
STARTCHAR 00D6
ENCODING 214
SWIDTH 666 0
DWIDTH 20 0
BBX 17 27 1 0
BITMAP
0E3C00
0E3C00
0E3C00
0E3C00
000000
000000
03F000
0FFC00
1FFE00
3C1F00
780F00
780780
700780
700780
700380
F00380
F00380
F00380
700380
700380
700780
700780
780700
3C0F00
3FFF00
1FFE00
0FF800
ENDCHAR
STARTCHAR 00D7
ENCODING 215
SWIDTH 566 0
DWIDTH 17 0
BBX 13 13 2 1
BITMAP
4020
E070
F0F8
79E0
3FC0
1F80
0F00
1F80
3FC0
79E0
F0F8
E070
4020
ENDCHAR
STARTCHAR 00D8
ENCODING 216
SWIDTH 666 0
DWIDTH 20 0
BBX 17 28 1 -4
BITMAP
000300
000700
000700
03FE00
0FFE00
1FFE00
3C1F00
783F00
783F80
707780
707780
70E380
F0E380
F0E380
F1C380
71C380
738380
738780
770780
7F0700
3E0F00
3FFF00
1FFE00
1FF800
380000
380000
300000
100000
ENDCHAR
STARTCHAR 00D9
ENCODING 217
SWIDTH 666 0
DWIDTH 20 0
BBX 15 28 2 0
BITMAP
0C00
0F00
0FE0
03F0
0060
0000
0000
F00E
F00E
F00E
F00E
F00E
F00E
F00E
F00E
F00E
F00E
F00E
F00E
F00E
F00E
F00E
F00E
F00E
781E
7FFC
3FFC
1FF0
ENDCHAR
STARTCHAR 00DA
ENCODING 218
SWIDTH 666 0
DWIDTH 20 0
BBX 15 28 2 0
BITMAP
0060
01E0
0FF0
0F80
0C00
0000
0000
F00E
F00E
F00E
F00E
F00E
F00E
F00E
F00E
F00E
F00E
F00E
F00E
F00E
F00E
F00E
F00E
F00E
781E
7FFC
3FFC
1FF0
ENDCHAR
STARTCHAR 00DB
ENCODING 219
SWIDTH 666 0
DWIDTH 20 0
BBX 15 28 2 0
BITMAP
0380
07C0
0FE0
1E70
3C78
0000
0000
F00E
F00E
F00E
F00E
F00E
F00E
F00E
F00E
F00E
F00E
F00E
F00E
F00E
F00E
F00E
F00E
F00E
781E
7FFC
3FFC
1FF0
ENDCHAR
STARTCHAR 00DC
ENCODING 220
SWIDTH 666 0
DWIDTH 20 0
BBX 15 27 2 0
BITMAP
1C70
1C70
1C70
1C70
0000
0000
F00E
F00E
F00E
F00E
F00E
F00E
F00E
F00E
F00E
F00E
F00E
F00E
F00E
F00E
F00E
F00E
F00E
781E
7FFC
3FFC
1FF0
ENDCHAR
STARTCHAR 00DD
ENCODING 221
SWIDTH 533 0
DWIDTH 16 0
BBX 16 28 0 0
BITMAP
0030
00F0
0FF8
07C0
0600
0000
0000
F007
700F
780E
381E
3C1C
1C3C
1E38
0E78
0F70
07F0
07E0
03C0
01C0
01C0
01C0
01C0
01C0
01C0
01C0
01C0
01C0
ENDCHAR
STARTCHAR 00DE
ENCODING 222
SWIDTH 600 0
DWIDTH 18 0
BBX 15 21 2 0
BITMAP
F000
F000
F000
FF80
FFF0
FFFC
FFFC
F01E
F01E
F01E
F00E
F01E
F01E
F01C
F0FC
FFF8
FFF0
FFC0
F000
F000
F000
ENDCHAR
STARTCHAR 00DF
ENCODING 223
SWIDTH 600 0
DWIDTH 18 0
BBX 15 22 2 0
BITMAP
0200
3FE0
7FF0
F9F8
F078
E078
E078
E1F0
E3E0
E780
E780
E7C0
E3F0
E1F8
E0FC
E03E
E01E
E00E
E01E
E7FE
E7FC
E7F8
ENDCHAR
STARTCHAR 00E0
ENCODING 224
SWIDTH 500 0
DWIDTH 15 0
BBX 13 22 1 0
BITMAP
1C00
1F00
3FC0
03C0
0040
0000
0000
7FC0
7FE0
7DF0
0070
0070
0070
1FF0
7FF0
F870
F070
E070
E070
F3F8
7FF8
3FB8
ENDCHAR
STARTCHAR 00E1
ENCODING 225
SWIDTH 500 0
DWIDTH 15 0
BBX 13 22 1 0
BITMAP
01C0
07C0
3FC0
3E00
1000
0000
0000
7FC0
7FE0
7DF0
0070
0070
0070
1FF0
7FF0
F870
F070
E070
E070
F3F8
7FF8
3FB8
ENDCHAR
STARTCHAR 00E2
ENCODING 226
SWIDTH 500 0
DWIDTH 15 0
BBX 13 22 1 0
BITMAP
0700
0F80
1DC0
39C0
0020
0000
0000
7FC0
7FE0
7DF0
0070
0070
0070
1FF0
7FF0
F870
F070
E070
E070
F3F8
7FF8
3FB8
ENDCHAR
STARTCHAR 00E3
ENCODING 227
SWIDTH 500 0
DWIDTH 15 0
BBX 13 22 1 0
BITMAP
1820
7FC0
7FE0
4380
0000
0000
0000
7FC0
7FE0
7DF0
0070
0070
0070
1FF0
7FF0
F870
F070
E070
E070
F3F8
7FF8
3FB8
ENDCHAR
STARTCHAR 00E4
ENCODING 228
SWIDTH 500 0
DWIDTH 15 0
BBX 13 22 1 0
BITMAP
78E0
78E0
78E0
78E0
0000
0000
0000
7FC0
7FE0
7DF0
0070
0070
0070
1FF0
7FF0
F870
F070
E070
E070
F3F8
7FF8
3FB8
ENDCHAR
STARTCHAR 00E5
ENCODING 229
SWIDTH 500 0
DWIDTH 15 0
BBX 13 23 1 0
BITMAP
0300
0F80
0DC0
18C0
08C0
0FC0
0780
0000
7FC0
7FE0
7DF0
0070
0070
0070
1FF0
7FF0
F870
F070
E070
E070
F3F8
7FF8
3FB8
ENDCHAR
STARTCHAR 00E6
ENCODING 230
SWIDTH 800 0
DWIDTH 24 0
BBX 22 15 1 0
BITMAP
7FCFE0
7FFFF0
7FFFF8
00F838
007038
00703C
1FFFFC
7FFFFC
F87FF8
F07000
E07000
E07800
FFFFF8
7FFFF8
3F9FF8
ENDCHAR
STARTCHAR 00E7
ENCODING 231
SWIDTH 433 0
DWIDTH 13 0
BBX 11 22 1 -7
BITMAP
1FE0
3FE0
7FE0
7800
F000
F000
F000
F000
F000
F000
7000
7800
7FE0
3FE0
1FE0
0600
0700
07C0
01C0
01C0
0FC0
0F80
ENDCHAR
STARTCHAR 00E8
ENCODING 232
SWIDTH 500 0
DWIDTH 15 0
BBX 13 22 1 0
BITMAP
1C00
1F00
3FE0
03C0
0040
0000
0000
1FC0
3FF0
7CF0
7078
7038
F038
FFF8
FFF8
FFF8
F000
F000
7000
7FF8
3FF8
1FF8
ENDCHAR
STARTCHAR 00E9
ENCODING 233
SWIDTH 500 0
DWIDTH 15 0
BBX 13 22 1 0
BITMAP
00C0
07C0
1FE0
1E00
1000
0000
0000
1FC0
3FF0
7CF0
7078
7038
F038
FFF8
FFF8
FFF8
F000
F000
7000
7FF8
3FF8
1FF8
ENDCHAR
STARTCHAR 00EA
ENCODING 234
SWIDTH 500 0
DWIDTH 15 0
BBX 13 22 1 0
BITMAP
0700
0F80
0FC0
1CE0
2010
0000
0000
1FC0
3FF0
7CF0
7078
7038
F038
FFF8
FFF8
FFF8
F000
F000
7000
7FF8
3FF8
1FF8
ENDCHAR
STARTCHAR 00EB
ENCODING 235
SWIDTH 500 0
DWIDTH 15 0
BBX 13 22 1 0
BITMAP
38E0
38E0
38E0
38E0
0000
0000
0000
1FC0
3FF0
7CF0
7078
7038
F038
FFF8
FFF8
FFF8
F000
F000
7000
7FF8
3FF8
1FF8
ENDCHAR
STARTCHAR 00EC
ENCODING 236
SWIDTH 233 0
DWIDTH 7 0
BBX 8 22 -2 0
BITMAP
60
7C
FF
0F
01
00
00
0E
0E
0E
0E
0E
0E
0E
0E
0E
0E
0E
0E
0E
0E
0E
ENDCHAR
STARTCHAR 00ED
ENCODING 237
SWIDTH 233 0
DWIDTH 7 0
BBX 8 22 1 0
BITMAP
06
1F
FF
F8
40
00
00
70
70
70
70
70
70
70
70
70
70
70
70
70
70
70
ENDCHAR
STARTCHAR 00EE
ENCODING 238
SWIDTH 233 0
DWIDTH 7 0
BBX 9 22 -1 0
BITMAP
1C00
3E00
7700
F380
0000
0000
0000
1C00
1C00
1C00
1C00
1C00
1C00
1C00
1C00
1C00
1C00
1C00
1C00
1C00
1C00
1C00
ENDCHAR
STARTCHAR 00EF
ENCODING 239
SWIDTH 233 0
DWIDTH 7 0
BBX 9 22 -1 0
BITMAP
E380
E380
E380
E380
0000
0000
0000
1C00
1C00
1C00
1C00
1C00
1C00
1C00
1C00
1C00
1C00
1C00
1C00
1C00
1C00
1C00
ENDCHAR
STARTCHAR 00F0
ENCODING 240
SWIDTH 566 0
DWIDTH 17 0
BBX 14 22 1 0
BITMAP
2020
3EF0
3FE0
0FE0
0FF0
1E78
1838
003C
001C
0FDC
3FFC
7FFC
783C
F01C
F01C
F01C
F01C
F03C
7878
7FF8
3FF0
1FE0
ENDCHAR
STARTCHAR 00F1
ENCODING 241
SWIDTH 533 0
DWIDTH 16 0
BBX 13 22 2 0
BITMAP
0820
3FE0
7FE0
23C0
0000
0000
0000
EFE0
FFF0
FFF0
E070
E070
E070
E078
E078
E078
E078
E078
E078
E078
E078
E078
ENDCHAR
STARTCHAR 00F2
ENCODING 242
SWIDTH 533 0
DWIDTH 16 0
BBX 14 22 1 0
BITMAP
0C00
1F80
1FE0
03E0
0040
0000
0000
1FE0
3FF0
7FF8
7038
7038
F03C
F03C
F03C
F03C
F03C
7038
7038
7FF8
3FF0
1FE0
ENDCHAR
STARTCHAR 00F3
ENCODING 243
SWIDTH 533 0
DWIDTH 16 0
BBX 14 22 1 0
BITMAP
00C0
07E0
1FE0
1F00
0800
0000
0000
1FE0
3FF0
7FF8
7038
7038
F03C
F03C
F03C
F03C
F03C
7038
7038
7FF8
3FF0
1FE0
ENDCHAR
STARTCHAR 00F4
ENCODING 244
SWIDTH 533 0
DWIDTH 16 0
BBX 14 22 1 0
BITMAP
0700
0780
0FC0
1CE0
2010
0000
0000
1FE0
3FF0
7FF8
7038
7038
F03C
F03C
F03C
F03C
F03C
7038
7038
7FF8
3FF0
1FE0
ENDCHAR
STARTCHAR 00F5
ENCODING 245
SWIDTH 533 0
DWIDTH 16 0
BBX 14 22 1 0
BITMAP
0C10
3FE0
3FF0
21C0
0000
0000
0000
1FE0
3FF0
7FF8
7038
7038
F03C
F03C
F03C
F03C
F03C
7038
7038
7FF8
3FF0
1FE0
ENDCHAR
STARTCHAR 00F6
ENCODING 246
SWIDTH 533 0
DWIDTH 16 0
BBX 14 22 1 0
BITMAP
38F0
38F0
38F0
38F0
0000
0000
0000
1FE0
3FF0
7FF8
7038
7038
F03C
F03C
F03C
F03C
F03C
7038
7038
7FF8
3FF0
1FE0
ENDCHAR
STARTCHAR 00F7
ENCODING 247
SWIDTH 566 0
DWIDTH 17 0
BBX 11 12 3 1
BITMAP
3F80
3F80
FFE0
FFE0
FFE0
FFE0
0000
0000
0000
0E00
0E00
0E00
ENDCHAR
STARTCHAR 00F8
ENCODING 248
SWIDTH 533 0
DWIDTH 16 0
BBX 14 21 1 -3
BITMAP
0030
0070
0060
1FE0
3FF0
7EF8
71F8
71B8
F1BC
F33C
F33C
F73C
F63C
7638
7C38
7DF8
3FF0
1FE0
3800
3000
3000
ENDCHAR
STARTCHAR 00F9
ENCODING 249
SWIDTH 533 0
DWIDTH 16 0
BBX 12 22 2 0
BITMAP
3000
7E00
3F80
0780
0080
0000
0000
E070
E070
E070
E070
E070
E070
E070
E070
E070
E070
E070
F070
FFF0
7FF0
3F70
ENDCHAR
STARTCHAR 00FA
ENCODING 250
SWIDTH 533 0
DWIDTH 16 0
BBX 12 22 2 0
BITMAP
01C0
07C0
3FC0
1E00
1000
0000
0000
E070
E070
E070
E070
E070
E070
E070
E070
E070
E070
E070
F070
FFF0
7FF0
3F70
ENDCHAR
STARTCHAR 00FB
ENCODING 251
SWIDTH 533 0
DWIDTH 16 0
BBX 12 22 2 0
BITMAP
0E00
1F00
3B80
39C0
4000
0000
0000
E070
E070
E070
E070
E070
E070
E070
E070
E070
E070
E070
F070
FFF0
7FF0
3F70
ENDCHAR
STARTCHAR 00FC
ENCODING 252
SWIDTH 533 0
DWIDTH 16 0
BBX 12 22 2 0
BITMAP
38E0
38E0
38E0
38E0
0000
0000
0000
E070
E070
E070
E070
E070
E070
E070
E070
E070
E070
E070
F070
FFF0
7FF0
3F70
ENDCHAR
STARTCHAR 00FD
ENCODING 253
SWIDTH 500 0
DWIDTH 15 0
BBX 13 28 1 -6
BITMAP
00E0
03E0
1FE0
1F00
0800
0000
0000
E038
E038
E078
7070
7070
7070
70E0
38E0
38E0
39E0
3DC0
1DC0
1FC0
1FC0
1F80
0380
0380
0780
0700
0700
0F00
ENDCHAR
STARTCHAR 00FE
ENCODING 254
SWIDTH 533 0
DWIDTH 16 0
BBX 13 27 2 -6
BITMAP
E000
E000
E000
E000
E000
E000
FFC0
FFF0
FFF0
E070
E078
E078
E078
E078
E078
E078
E078
E070
FFF0
FFE0
FFC0
E000
E000
E000
E000
E000
E000
ENDCHAR
STARTCHAR 00FF
ENCODING 255
SWIDTH 500 0
DWIDTH 15 0
BBX 13 28 1 -6
BITMAP
38E0
38E0
38E0
38E0
0000
0000
0000
E038
E038
E078
7070
7070
7070
70E0
38E0
38E0
39E0
3DC0
1DC0
1FC0
1FC0
1F80
0380
0380
0780
0700
0700
0F00
ENDCHAR
STARTCHAR 0100
ENCODING 256
SWIDTH 600 0
DWIDTH 18 0
BBX 16 26 1 0
BITMAP
1FF8
1FF8
0000
0000
0000
07E0
0FF0
0FF0
0E70
0E70
1E78
1C38
1C38
1C38
3C3C
381C
381C
381C
781E
7FFE
7FFE
7FFE
F00F
F00F
E007
E007
ENDCHAR
STARTCHAR 0101
ENCODING 257
SWIDTH 500 0
DWIDTH 15 0
BBX 13 21 1 0
BITMAP
3FE0
3FE0
3FE0
0000
0000
0000
7FC0
7FE0
7DF0
0070
0070
0070
1FF0
7FF0
F870
F070
E070
E070
F3F8
7FF8
3FB8
ENDCHAR
STARTCHAR 0102
ENCODING 258
SWIDTH 600 0
DWIDTH 18 0
BBX 16 27 1 0
BITMAP
1C38
1FF8
0FF0
07C0
0000
0000
07E0
0FF0
0FF0
0E70
0E70
1E78
1C38
1C38
1C38
3C3C
381C
381C
381C
781E
7FFE
7FFE
7FFE
F00F
F00F
E007
E007
ENDCHAR
STARTCHAR 0103
ENCODING 259
SWIDTH 500 0
DWIDTH 15 0
BBX 13 22 1 0
BITMAP
78F0
3FF0
3FE0
1FC0
0000
0000
0000
7FC0
7FE0
7FF0
00F0
0070
0070
1FF0
7FF0
F870
F070
E070
E070
FFF8
7FF8
3FB8
ENDCHAR
STARTCHAR 0104
ENCODING 260
SWIDTH 600 0
DWIDTH 18 0
BBX 17 27 1 -6
BITMAP
07E000
0FF000
0FF000
0E7000
0E7000
1E7800
1C3800
1C3800
1C3800
3C3C00
381C00
381C00
381C00
781E00
7FFE00
7FFE00
7FFE00
F00F00
F00F00
E00700
E00700
000600
000E00
001C00
001C00
001F80
000F80
ENDCHAR
STARTCHAR 0105
ENCODING 261
SWIDTH 500 0
DWIDTH 15 0
BBX 13 21 1 -6
BITMAP
7FC0
7FE0
7DF0
0070
0070
0070
1FF0
7FF0
F870
F070
E070
E070
F3F8
7FF8
3FB8
0070
00E0
00E0
00E0
00F8
00F8
ENDCHAR
STARTCHAR 0106
ENCODING 262
SWIDTH 533 0
DWIDTH 16 0
BBX 13 28 2 0
BITMAP
00C0
03E0
0FE0
1F80
1C00
0000
0000
0FE0
3FF8
7FF8
7808
F000
F000
E000
E000
E000
E000
E000
E000
E000
E000
E000
E000
F000
F800
7FF8
3FF8
1FF8
ENDCHAR
STARTCHAR 0107
ENCODING 263
SWIDTH 433 0
DWIDTH 13 0
BBX 11 22 1 0
BITMAP
01C0
07C0
3FC0
1E00
1000
0000
0000
1FE0
3FE0
7FE0
7800
7000
F000
F000
F000
F000
F000
7000
7800
7FE0
3FE0
1FE0
ENDCHAR
STARTCHAR 0108
ENCODING 264
SWIDTH 533 0
DWIDTH 16 0
BBX 13 28 2 0
BITMAP
0380
07C0
0FC0
1CE0
3878
0000
0000
0FE0
3FF8
7FF8
7808
F000
F000
E000
E000
E000
E000
E000
E000
E000
E000
E000
E000
F000
F800
7FF8
3FF8
1FF8
ENDCHAR
STARTCHAR 0109
ENCODING 265
SWIDTH 433 0
DWIDTH 13 0
BBX 11 22 1 0
BITMAP
0E00
1F00
1F80
39C0
4020
0000
0000
1FE0
3FE0
7FE0
7800
7000
F000
F000
F000
F000
F000
7000
7800
7FE0
3FE0
1FE0
ENDCHAR
STARTCHAR 010A
ENCODING 266
SWIDTH 533 0
DWIDTH 16 0
BBX 13 27 2 0
BITMAP
0700
0700
0700
0700
0000
0000
0FE0
3FF8
7FF8
7808
F000
F000
E000
E000
E000
E000
E000
E000
E000
E000
E000
E000
F000
F800
7FF8
3FF8
1FF8
ENDCHAR
STARTCHAR 010B
ENCODING 267
SWIDTH 433 0
DWIDTH 13 0
BBX 11 21 1 0
BITMAP
0700
0700
0700
0700
0000
0000
1FE0
3FE0
7FE0
7800
7000
F000
F000
F000
F000
F000
7000
7800
7FE0
3FE0
1FE0
ENDCHAR
STARTCHAR 010C
ENCODING 268
SWIDTH 533 0
DWIDTH 16 0
BBX 13 28 2 0
BITMAP
3878
1CF0
0FE0
07C0
0380
0000
0000
0FE0
3FF8
7FF8
7808
F000
F000
E000
E000
E000
E000
E000
E000
E000
E000
E000
E000
F000
F800
7FF8
3FF8
1FF8
ENDCHAR
STARTCHAR 010D
ENCODING 269
SWIDTH 433 0
DWIDTH 13 0
BBX 11 22 1 0
BITMAP
78E0
1DC0
1F80
0F00
0000
0000
0000
1FE0
3FE0
7FE0
7800
7000
F000
F000
F000
F000
F000
7000
7800
7FE0
3FE0
1FE0
ENDCHAR
STARTCHAR 010E
ENCODING 270
SWIDTH 633 0
DWIDTH 19 0
BBX 16 28 2 0
BITMAP
3870
1CE0
0FE0
0FC0
0780
0000
0000
FF00
FFF0
FFFC
F0FC
F01E
F00E
F00E
F00F
F00F
F00F
F00F
F00F
F00F
F00F
F00E
F00E
F01E
F03C
FFFC
FFF8
FFE0
ENDCHAR
STARTCHAR 010F
ENCODING 271
SWIDTH 633 0
DWIDTH 19 0
BBX 19 21 1 0
BITMAP
003800
0038E0
0038E0
0038E0
0038E0
0039C0
1FF9C0
3FF800
7FF800
783800
703800
F03800
F03800
F03800
F03800
F03800
F03800
703800
7FF800
3FF800
1FB800
ENDCHAR
STARTCHAR 0110
ENCODING 272
SWIDTH 633 0
DWIDTH 19 0
BBX 17 21 1 0
BITMAP
7FE000
7FFC00
7FFE00
787F00
780F00
780700
780780
780780
780780
FF8780
FF8780
FF8780
780780
780780
780700
780700
780F00
783F00
7FFE00
7FFC00
7FF000
ENDCHAR
STARTCHAR 0111
ENCODING 273
SWIDTH 533 0
DWIDTH 16 0
BBX 13 21 1 0
BITMAP
0FF8
0FF8
0038
0038
0038
0038
1FF8
3FF8
7FF8
7838
7038
F038
F038
F038
F038
F038
F038
7038
7FF8
3FF8
1FB8
ENDCHAR
STARTCHAR 0112
ENCODING 274
SWIDTH 566 0
DWIDTH 17 0
BBX 13 26 2 0
BITMAP
3FF0
3FF0
0000
0000
0000
FFF8
FFF8
FFF8
F000
F000
F000
F000
F000
F000
FFF0
FFF0
FFF0
F000
F000
F000
F000
F000
F000
FFF8
FFF8
FFF8
ENDCHAR
STARTCHAR 0113
ENCODING 275
SWIDTH 500 0
DWIDTH 15 0
BBX 13 21 1 0
BITMAP
1FE0
1FE0
1FE0
0000
0000
0000
1FC0
3FF0
7CF0
7078
7038
F038
FFF8
FFF8
FFF8
F000
F000
7000
7FF8
3FF8
1FF8
ENDCHAR
STARTCHAR 0114
ENCODING 276
SWIDTH 566 0
DWIDTH 17 0
BBX 13 27 2 0
BITMAP
3870
3FF0
1FE0
0780
0000
0000
FFF8
FFF8
FFF8
F000
F000
F000
F000
F000
F000
FFF0
FFF0
FFF0
F000
F000
F000
F000
F000
F000
FFF8
FFF8
FFF8
ENDCHAR
STARTCHAR 0115
ENCODING 277
SWIDTH 500 0
DWIDTH 15 0
BBX 13 22 1 0
BITMAP
3860
38E0
1FE0
0FC0
0600
0000
0000
1FC0
3FF0
7CF0
7078
7038
F038
FFF8
FFF8
FFF8
F000
F000
7000
7FF8
3FF8
1FF8
ENDCHAR
STARTCHAR 0116
ENCODING 278
SWIDTH 566 0
DWIDTH 17 0
BBX 13 27 2 0
BITMAP
0780
0780
0780
0780
0000
0000
FFF8
FFF8
FFF8
F000
F000
F000
F000
F000
F000
FFF0
FFF0
FFF0
F000
F000
F000
F000
F000
F000
FFF8
FFF8
FFF8
ENDCHAR
STARTCHAR 0117
ENCODING 279
SWIDTH 500 0
DWIDTH 15 0
BBX 13 21 1 0
BITMAP
0700
0700
0700
0700
0000
0000
1FC0
3FF0
7CF0
7078
7038
F038
FFF8
FFF8
FFF8
F000
F000
7000
7FF8
3FF8
1FF8
ENDCHAR
STARTCHAR 0118
ENCODING 280
SWIDTH 566 0
DWIDTH 17 0
BBX 13 27 2 -6
BITMAP
FFF8
FFF8
FFF8
F000
F000
F000
F000
F000
F000
FFF0
FFF0
FFF0
F000
F000
F000
F000
F000
F000
FFF8
FFF8
FFF8
0070
00E0
00E0
00E0
00F8
00F8
ENDCHAR
STARTCHAR 0119
ENCODING 281
SWIDTH 500 0
DWIDTH 15 0
BBX 13 21 1 -6
BITMAP
1FC0
3FF0
7CF0
7078
7038
F038
FFF8
FFF8
FFF8
F000
F000
7000
7FF8
3FF8
1FF8
00E0
01C0
0380
03C0
03F0
01F0
ENDCHAR
STARTCHAR 011A
ENCODING 282
SWIDTH 566 0
DWIDTH 17 0
BBX 13 28 2 0
BITMAP
78F0
3DE0
1FC0
0F80
0700
0000
0000
FFF8
FFF8
FFF8
F000
F000
F000
F000
F000
F000
FFF0
FFF0
FFF0
F000
F000
F000
F000
F000
F000
FFF8
FFF8
FFF8
ENDCHAR
STARTCHAR 011B
ENCODING 283
SWIDTH 500 0
DWIDTH 15 0
BBX 13 22 1 0
BITMAP
38E0
1DC0
0F80
0700
0000
0000
0000
1FC0
3FF0
7CF0
7078
7038
F038
FFF8
FFF8
FFF8
F000
F000
7000
7FF8
3FF8
1FF8
ENDCHAR
STARTCHAR 011C
ENCODING 284
SWIDTH 600 0
DWIDTH 18 0
BBX 16 28 1 0
BITMAP
01C0
03E0
07F0
0738
1E3C
0000
0000
07FC
1FFF
3FFF
3C01
7800
7800
7000
7000
7000
F000
F03F
F03F
703F
700F
700F
700F
780F
3C0F
3FFF
1FFF
0FFF
ENDCHAR
STARTCHAR 011D
ENCODING 285
SWIDTH 533 0
DWIDTH 16 0
BBX 14 29 1 -7
BITMAP
0300
0780
0FC0
1CE0
2010
0000
0000
1FFC
3FFC
78FC
7070
F078
F070
7070
7DF0
3FF0
1FC0
3800
3800
3E00
3FF8
3FFC
70FC
F01C
E01C
F03C
7FFC
7FF8
1FE0
ENDCHAR
STARTCHAR 011E
ENCODING 286
SWIDTH 600 0
DWIDTH 18 0
BBX 16 27 1 0
BITMAP
0E1C
0FF8
07F8
03E0
0000
0000
03F8
1FFF
3FFF
3E01
7800
7800
7000
7000
7000
F000
F03F
F03F
703F
700F
700F
700F
780F
3C0F
3FFF
1FFF
0FFF
ENDCHAR
STARTCHAR 011F
ENCODING 287
SWIDTH 533 0
DWIDTH 16 0
BBX 14 29 1 -7
BITMAP
3870
1860
1FE0
0FC0
0300
0000
0000
1FFC
3FFC
78FC
7070
F078
F070
7070
7DF0
3FF0
1FC0
3800
3800
3E00
3FF8
3FFC
70FC
F01C
E01C
F03C
7FFC
7FF8
1FE0
ENDCHAR
STARTCHAR 0120
ENCODING 288
SWIDTH 600 0
DWIDTH 18 0
BBX 16 27 1 0
BITMAP
01C0
01C0
01C0
01C0
0000
0000
03F8
1FFF
3FFF
3E01
7800
7800
7000
7000
7000
F000
F03F
F03F
703F
700F
700F
700F
780F
3C0F
3FFF
1FFF
0FFF
ENDCHAR
STARTCHAR 0121
ENCODING 289
SWIDTH 533 0
DWIDTH 16 0
BBX 14 28 1 -7
BITMAP
0780
0780
0780
0780
0000
0000
1FFC
3FFC
78FC
7070
F078
F070
7070
7DF0
3FF0
1FC0
3800
3800
3E00
3FF8
3FFC
70FC
F01C
E01C
F03C
7FFC
7FF8
1FE0
ENDCHAR
STARTCHAR 0122
ENCODING 290
SWIDTH 600 0
DWIDTH 18 0
BBX 16 30 1 -9
BITMAP
03F8
1FFF
3FFF
3E01
7800
7800
7000
7000
7000
F000
F03F
F03F
703F
700F
700F
700F
780F
3C0F
3FFF
1FFF
0FFF
0000
0000
01E0
01C0
01C0
01C0
01C0
0380
0380
ENDCHAR
STARTCHAR 0123
ENCODING 291
SWIDTH 533 0
DWIDTH 16 0
BBX 14 31 1 -7
BITMAP
0380
0380
0700
0700
0700
0700
0800
0000
0000
1FFC
3FFC
78FC
7070
F078
F070
7070
7DF0
3FF0
1FC0
3800
3800
3E00
3FF8
3FFC
70FC
F01C
E01C
F03C
7FFC
7FF8
1FE0
ENDCHAR
STARTCHAR 0124
ENCODING 292
SWIDTH 666 0
DWIDTH 20 0
BBX 16 28 2 0
BITMAP
01C0
03E0
07E0
0E70
1C3C
0000
0000
F007
F007
F007
F007
F007
F007
F007
F007
F007
FFFF
FFFF
FFFF
F007
F007
F007
F007
F007
F007
F007
F007
F007
ENDCHAR
STARTCHAR 0125
ENCODING 293
SWIDTH 533 0
DWIDTH 16 0
BBX 13 27 2 0
BITMAP
0F00
0F80
1DC0
39E0
4000
0000
E000
E000
E000
E000
E000
E000
EFE0
FFF0
FFF0
E070
E070
E070
E078
E078
E078
E078
E078
E078
E078
E078
E078
ENDCHAR
STARTCHAR 0126
ENCODING 294
SWIDTH 700 0
DWIDTH 21 0
BBX 19 21 1 0
BITMAP
780380
780380
780380
FFFFE0
FFFFE0
FFFFE0
780380
780380
780380
7FFF80
7FFF80
7FFF80
780380
780380
780380
780380
780380
780380
780380
780380
780380
ENDCHAR
STARTCHAR 0127
ENCODING 295
SWIDTH 533 0
DWIDTH 16 0
BBX 15 21 0 0
BITMAP
3800
3800
FFC0
FFC0
3800
3800
3BF8
3FFC
3FFC
381C
381C
381C
381E
381E
381E
381E
381E
381E
381E
381E
381E
ENDCHAR
STARTCHAR 0128
ENCODING 296
SWIDTH 266 0
DWIDTH 8 0
BBX 11 28 -2 0
BITMAP
1820
7E60
FFE0
67E0
4180
0000
0000
0F00
0F00
0F00
0F00
0F00
0F00
0F00
0F00
0F00
0F00
0F00
0F00
0F00
0F00
0F00
0F00
0F00
0F00
0F00
0F00
0F00
ENDCHAR
STARTCHAR 0129
ENCODING 297
SWIDTH 233 0
DWIDTH 7 0
BBX 10 22 -1 0
BITMAP
3080
FD80
FFC0
8700
0000
0000
0000
1C00
1C00
1C00
1C00
1C00
1C00
1C00
1C00
1C00
1C00
1C00
1C00
1C00
1C00
1C00
ENDCHAR
STARTCHAR 012A
ENCODING 298
SWIDTH 266 0
DWIDTH 8 0
BBX 10 26 -1 0
BITMAP
FFC0
FFC0
0000
0000
0000
1E00
1E00
1E00
1E00
1E00
1E00
1E00
1E00
1E00
1E00
1E00
1E00
1E00
1E00
1E00
1E00
1E00
1E00
1E00
1E00
1E00
ENDCHAR
STARTCHAR 012B
ENCODING 299
SWIDTH 233 0
DWIDTH 7 0
BBX 9 21 -1 0
BITMAP
FF80
FF80
FF80
0000
0000
0000
1C00
1C00
1C00
1C00
1C00
1C00
1C00
1C00
1C00
1C00
1C00
1C00
1C00
1C00
1C00
ENDCHAR
STARTCHAR 012C
ENCODING 300
SWIDTH 266 0
DWIDTH 8 0
BBX 11 27 -1 0
BITMAP
E1E0
7BC0
7F80
1F00
0000
0000
1E00
1E00
1E00
1E00
1E00
1E00
1E00
1E00
1E00
1E00
1E00
1E00
1E00
1E00
1E00
1E00
1E00
1E00
1E00
1E00
1E00
ENDCHAR
STARTCHAR 012D
ENCODING 301
SWIDTH 233 0
DWIDTH 7 0
BBX 9 22 -1 0
BITMAP
C180
E380
7F80
7F00
0800
0000
0000
1C00
1C00
1C00
1C00
1C00
1C00
1C00
1C00
1C00
1C00
1C00
1C00
1C00
1C00
1C00
ENDCHAR
STARTCHAR 012E
ENCODING 302
SWIDTH 266 0
DWIDTH 8 0
BBX 5 27 1 -6
BITMAP
78
78
78
78
78
78
78
78
78
78
78
78
78
78
78
78
78
78
78
78
78
70
E0
E0
E0
F8
F8
ENDCHAR
STARTCHAR 012F
ENCODING 303
SWIDTH 233 0
DWIDTH 7 0
BBX 6 27 0 -6
BITMAP
38
38
38
00
00
00
38
38
38
38
38
38
38
38
38
38
38
38
38
38
38
38
70
E0
E0
FC
7C
ENDCHAR
STARTCHAR 0130
ENCODING 304
SWIDTH 266 0
DWIDTH 8 0
BBX 4 27 2 0
BITMAP
F0
F0
F0
F0
00
00
F0
F0
F0
F0
F0
F0
F0
F0
F0
F0
F0
F0
F0
F0
F0
F0
F0
F0
F0
F0
F0
ENDCHAR
STARTCHAR 0131
ENCODING 305
SWIDTH 233 0
DWIDTH 7 0
BBX 3 15 2 0
BITMAP
E0
E0
E0
E0
E0
E0
E0
E0
E0
E0
E0
E0
E0
E0
E0
ENDCHAR
STARTCHAR 0134
ENCODING 308
SWIDTH 300 0
DWIDTH 9 0
BBX 10 30 0 -2
BITMAP
0C00
1E00
3F00
7380
E1C0
0000
0000
1E00
1E00
1E00
1E00
1E00
1E00
1E00
1E00
1E00
1E00
1E00
1E00
1E00
1E00
1E00
1E00
1E00
1E00
1E00
1E00
7C00
7C00
7800
ENDCHAR
STARTCHAR 0135
ENCODING 309
SWIDTH 233 0
DWIDTH 7 0
BBX 9 29 -1 -7
BITMAP
1C00
3E00
7700
7380
8000
0000
0000
1C00
1C00
1C00
1C00
1C00
1C00
1C00
1C00
1C00
1C00
1C00
1C00
1C00
1C00
1C00
1C00
1C00
3C00
7800
F800
E000
4000
ENDCHAR
STARTCHAR 0136
ENCODING 310
SWIDTH 566 0
DWIDTH 17 0
BBX 15 30 2 -9
BITMAP
F01E
F03C
F03C
F078
F078
F0F0
F0F0
F1E0
F1E0
FFC0
FFC0
FFC0
FDE0
F1E0
F0F0
F0F0
F078
F078
F03C
F03C
F01E
0000
0000
0380
0700
0700
0700
0700
0700
0E00
ENDCHAR
STARTCHAR 0137
ENCODING 311
SWIDTH 500 0
DWIDTH 15 0
BBX 14 30 1 -9
BITMAP
7000
7000
7000
7000
7000
7000
7078
7070
70F0
70E0
71E0
73C0
7F80
7F80
7FC0
71C0
71E0
70F0
70F0
7078
703C
0000
0000
7800
7000
7000
7000
7000
E000
E000
ENDCHAR
STARTCHAR 0139
ENCODING 313
SWIDTH 466 0
DWIDTH 14 0
BBX 12 28 2 0
BITMAP
0180
0780
1FC0
3E00
3800
0000
0000
F000
F000
F000
F000
F000
F000
F000
F000
F000
F000
F000
F000
F000
F000
F000
F000
F000
F000
FFF0
FFF0
FFF0
ENDCHAR
STARTCHAR 013A
ENCODING 314
SWIDTH 266 0
DWIDTH 8 0
BBX 8 29 1 0
BITMAP
01
07
3F
FE
70
40
00
00
70
70
70
70
70
70
70
70
70
70
70
70
70
70
70
70
70
70
70
70
70
ENDCHAR
STARTCHAR 013B
ENCODING 315
SWIDTH 466 0
DWIDTH 14 0
BBX 12 30 2 -9
BITMAP
F000
F000
F000
F000
F000
F000
F000
F000
F000
F000
F000
F000
F000
F000
F000
F000
F000
F000
FFF0
FFF0
FFF0
0000
0000
0700
0F00
0E00
0E00
0E00
0E00
1C00
ENDCHAR
STARTCHAR 013C
ENCODING 316
SWIDTH 266 0
DWIDTH 8 0
BBX 4 30 1 -9
BITMAP
70
70
70
70
70
70
70
70
70
70
70
70
70
70
70
70
70
70
70
70
70
00
00
70
70
70
F0
E0
E0
E0
ENDCHAR
STARTCHAR 013D
ENCODING 317
SWIDTH 500 0
DWIDTH 15 0
BBX 12 21 2 0
BITMAP
F0F0
F0F0
F0F0
F0F0
F0F0
F0F0
F0F0
F0F0
F000
F000
F000
F000
F000
F000
F000
F000
F000
F000
FFF0
FFF0
FFF0
ENDCHAR
STARTCHAR 013E
ENCODING 318
SWIDTH 333 0
DWIDTH 10 0
BBX 10 21 2 0
BITMAP
E040
E380
E380
E380
E380
E700
E700
E000
E000
E000
E000
E000
E000
E000
E000
E000
E000
E000
E000
E000
E000
ENDCHAR
STARTCHAR 0141
ENCODING 321
SWIDTH 466 0
DWIDTH 14 0
BBX 14 21 0 0
BITMAP
1C00
1C00
1C00
1C00
1C00
1C00
1CC0
1DE0
1FC0
1F80
1E00
7C00
FC00
FC00
5C00
1C00
1C00
1C00
1FFC
1FFC
1FFC
ENDCHAR
STARTCHAR 0142
ENCODING 322
SWIDTH 366 0
DWIDTH 11 0
BBX 10 21 0 0
BITMAP
0E00
0E00
0E00
0E00
0E00
0E00
0E00
0E80
0FC0
0F80
1F00
3E00
FE00
7E00
4E00
0E00
0E00
0E00
0E00
0E00
0E00
ENDCHAR
STARTCHAR 0143
ENCODING 323
SWIDTH 700 0
DWIDTH 21 0
BBX 16 28 2 0
BITMAP
0030
00F0
07F0
0FC0
0600
0000
0000
FC07
FE07
FE07
FE07
F707
F707
F707
F387
F387
F387
F1C7
F1C7
F1C7
F0E7
F0E7
F077
F077
F077
F03F
F03F
F03F
ENDCHAR
STARTCHAR 0144
ENCODING 324
SWIDTH 533 0
DWIDTH 16 0
BBX 13 22 2 0
BITMAP
01C0
07C0
1FE0
1E00
1000
0000
0000
EFE0
FFF0
FFF0
E070
E070
E070
E078
E078
E078
E078
E078
E078
E078
E078
E078
ENDCHAR
STARTCHAR 0145
ENCODING 325
SWIDTH 700 0
DWIDTH 21 0
BBX 16 30 2 -9
BITMAP
FC07
FE07
FE07
FE07
F707
F707
F707
F387
F387
F387
F1C7
F1C7
F1C7
F0E7
F0E7
F077
F077
F077
F03F
F03F
F03F
0000
0000
01C0
01C0
01C0
01C0
0380
0380
0380
ENDCHAR
STARTCHAR 0146
ENCODING 326
SWIDTH 533 0
DWIDTH 16 0
BBX 14 24 1 -9
BITMAP
77F0
7FF8
7FF8
7038
7038
7038
703C
703C
703C
703C
703C
703C
703C
703C
703C
0000
0000
3800
3800
7000
7000
7000
7000
F000
ENDCHAR
STARTCHAR 0147
ENCODING 327
SWIDTH 700 0
DWIDTH 21 0
BBX 16 28 2 0
BITMAP
1C3C
0E78
07F0
03E0
01C0
0000
0000
FC07
FE07
FE07
FE07
F707
F707
F707
F387
F387
F387
F1C7
F1C7
F1C7
F0E7
F0E7
F077
F077
F077
F03F
F03F
F03F
ENDCHAR
STARTCHAR 0148
ENCODING 328
SWIDTH 533 0
DWIDTH 16 0
BBX 13 22 2 0
BITMAP
78E0
1DC0
1F80
0F00
0000
0000
0000
EFE0
FFF0
FFF0
E070
E070
E070
E078
E078
E078
E078
E078
E078
E078
E078
E078
ENDCHAR
STARTCHAR 014A
ENCODING 330
SWIDTH 700 0
DWIDTH 21 0
BBX 16 27 2 -6
BITMAP
FC07
FE07
FE07
FE07
F707
F707
F707
F387
F387
F387
F1C7
F1C7
F1C7
F0E7
F0E7
F077
F077
F077
F03F
F03F
F03F
0007
0007
000F
003F
003E
003C
ENDCHAR
STARTCHAR 014B
ENCODING 331
SWIDTH 533 0
DWIDTH 16 0
BBX 13 22 2 -7
BITMAP
EFC0
FFE0
FFF0
E070
E070
E070
E078
E078
E078
E078
E078
E078
E078
E078
E078
0078
0070
0070
00F0
03E0
03C0
0180
ENDCHAR
STARTCHAR 014C
ENCODING 332
SWIDTH 666 0
DWIDTH 20 0
BBX 17 26 1 0
BITMAP
0FFC00
0FFC00
000000
000000
000000
03F000
0FFC00
1FFE00
3C1F00
780F00
780780
700780
700780
700380
F00380
F00380
F00380
700380
700380
700780
700780
780700
3C0F00
3FFF00
1FFE00
0FF800
ENDCHAR
STARTCHAR 014D
ENCODING 333
SWIDTH 533 0
DWIDTH 16 0
BBX 14 21 1 0
BITMAP
1FE0
1FE0
1FE0
0000
0000
0000
1FE0
3FF0
7FF8
7038
7038
F03C
F03C
F03C
F03C
F03C
7038
7038
7FF8
3FF0
1FE0
ENDCHAR
STARTCHAR 014E
ENCODING 334
SWIDTH 666 0
DWIDTH 20 0
BBX 17 27 1 0
BITMAP
0E1C00
0FFC00
07F800
01E000
000000
000000
03F000
0FFC00
1FFE00
3C1F00
780F00
780780
700780
700780
700380
F00380
F00380
F00380
700380
700380
700780
700780
780700
3C0F00
3FFF00
1FFE00
0FF800
ENDCHAR
STARTCHAR 014F
ENCODING 335
SWIDTH 533 0
DWIDTH 16 0
BBX 14 22 1 0
BITMAP
3870
1860
1FE0
0FC0
0300
0000
0000
1FE0
3FF0
7FF8
7038
7038
F03C
F03C
F03C
F03C
F03C
7038
7038
7FF8
3FF0
1FE0
ENDCHAR
STARTCHAR 0150
ENCODING 336
SWIDTH 666 0
DWIDTH 20 0
BBX 17 28 1 0
BITMAP
038E00
078E00
071C00
0E3C00
0E3800
040800
000000
03F000
0FFC00
1FFE00
3C1F00
780F00
780780
700780
700780
700380
F00380
F00380
F00380
700380
700380
700780
700780
780700
3C0F00
3FFF00
1FFE00
0FF800
ENDCHAR
STARTCHAR 0151
ENCODING 337
SWIDTH 533 0
DWIDTH 16 0
BBX 14 24 1 0
BITMAP
0410
0F3C
1E78
3CF0
38E0
78E0
1040
0000
0000
1FE0
3FF0
7FF8
7038
7038
F03C
F03C
F03C
F03C
F03C
7038
7038
7FF8
3FF0
1FE0
ENDCHAR
STARTCHAR 0152
ENCODING 338
SWIDTH 900 0
DWIDTH 27 0
BBX 24 21 2 0
BITMAP
0FFFFF
3FFFFF
7FFFFF
7C1E00
F01E00
F01E00
E01E00
E01E00
E01E00
E01FFC
E01FFC
E01FFC
E01E00
E01E00
E01E00
F01E00
F01E00
F81E00
7FFFFF
3FFFFF
1FFFFF
ENDCHAR
STARTCHAR 0153
ENCODING 339
SWIDTH 833 0
DWIDTH 25 0
BBX 23 15 1 0
BITMAP
1FC3F0
3FE7FC
7FFFFC
707C1E
703C0E
F03C0E
F03FFE
F03FFE
F03FFE
F03C00
703C00
707C00
7FFFFE
3FFFFE
1FC7FE
ENDCHAR
STARTCHAR 0154
ENCODING 340
SWIDTH 633 0
DWIDTH 19 0
BBX 15 28 2 0
BITMAP
0060
01E0
0FE0
1F80
0C00
0000
0000
FF80
FFF8
FFFC
F07C
F01E
F01E
F00E
F00E
F01E
F01E
F03C
FFFC
FFF8
FFF0
F070
F078
F038
F03C
F03C
F01E
F01E
ENDCHAR
STARTCHAR 0155
ENCODING 341
SWIDTH 366 0
DWIDTH 11 0
BBX 8 22 2 0
BITMAP
06
3E
FF
F0
80
00
00
E3
EF
FF
FC
E0
E0
E0
E0
E0
E0
E0
E0
E0
E0
E0
ENDCHAR
STARTCHAR 0156
ENCODING 342
SWIDTH 633 0
DWIDTH 19 0
BBX 15 30 2 -9
BITMAP
FF80
FFF8
FFFC
F07C
F01E
F01E
F00E
F00E
F01E
F01E
F03C
FFFC
FFF8
FFF0
F070
F078
F038
F03C
F03C
F01E
F01E
0000
0000
0380
0380
0380
0780
0700
0700
0700
ENDCHAR
STARTCHAR 0157
ENCODING 343
SWIDTH 366 0
DWIDTH 11 0
BBX 9 24 1 -9
BITMAP
7180
7780
7F80
7E00
7000
7000
7000
7000
7000
7000
7000
7000
7000
7000
7000
0000
0000
7000
7000
7000
E000
E000
E000
E000
ENDCHAR
STARTCHAR 0158
ENCODING 344
SWIDTH 633 0
DWIDTH 19 0
BBX 15 28 2 0
BITMAP
3870
1CE0
0FE0
0FC0
0780
0000
0000
FF80
FFF8
FFFC
F07C
F01E
F01E
F00E
F00E
F01E
F01E
F03C
FFFC
FFF8
FFF0
F070
F078
F038
F03C
F03C
F01E
F01E
ENDCHAR
STARTCHAR 0159
ENCODING 345
SWIDTH 366 0
DWIDTH 11 0
BBX 10 22 0 0
BITMAP
F1C0
3B80
1F00
1E00
0000
0000
0000
38C0
3BC0
3FC0
3F00
3800
3800
3800
3800
3800
3800
3800
3800
3800
3800
3800
ENDCHAR
STARTCHAR 015A
ENCODING 346
SWIDTH 533 0
DWIDTH 16 0
BBX 14 28 1 0
BITMAP
0060
01E0
07F0
0F80
0E00
0000
0000
0FF0
3FFC
7FF8
7804
F000
F000
F000
F000
7C00
7FC0
1FF0
07F8
00FC
003C
001C
001C
003C
003C
7FF8
7FF0
FFE0
ENDCHAR
STARTCHAR 015B
ENCODING 347
SWIDTH 466 0
DWIDTH 14 0
BBX 12 22 1 0
BITMAP
0180
07C0
3FC0
3E00
1000
0000
0000
3FE0
7FE0
FFE0
F000
E000
F800
7F80
7FE0
0FF0
00F0
0070
00F0
FFF0
FFE0
FFC0
ENDCHAR
STARTCHAR 015C
ENCODING 348
SWIDTH 533 0
DWIDTH 16 0
BBX 14 28 1 0
BITMAP
0380
07C0
0FE0
1EF0
3C78
0000
0000
0FF0
3FFC
7FF8
7804
F000
F000
F000
F000
7C00
7FC0
1FF0
07F8
00FC
003C
001C
001C
003C
003C
7FF8
7FF0
FFE0
ENDCHAR
STARTCHAR 015D
ENCODING 349
SWIDTH 466 0
DWIDTH 14 0
BBX 12 22 1 0
BITMAP
0600
0F00
1F80
39C0
4020
0000
0000
3FE0
7FE0
FFE0
F000
E000
F800
7F80
7FE0
0FF0
00F0
0070
00F0
FFF0
FFE0
FFC0
ENDCHAR
STARTCHAR 015E
ENCODING 350
SWIDTH 533 0
DWIDTH 16 0
BBX 14 28 1 -7
BITMAP
0FF0
3FFC
7FF8
7804
F000
F000
F000
F000
7C00
7FC0
1FF0
07F8
00FC
003C
001C
001C
003C
003C
7FF8
7FF0
FFE0
0100
01C0
01E0
0070
0070
03E0
03C0
ENDCHAR
STARTCHAR 015F
ENCODING 351
SWIDTH 466 0
DWIDTH 14 0
BBX 12 22 1 -7
BITMAP
3FE0
7FE0
FFE0
F000
E000
F800
7F80
7FE0
0FF0
00F0
0070
00F0
FFF0
FFE0
FFC0
0600
0700
07C0
01C0
01C0
0FC0
0F80
ENDCHAR
STARTCHAR 0160
ENCODING 352
SWIDTH 533 0
DWIDTH 16 0
BBX 14 28 1 0
BITMAP
3C38
1E70
0FE0
07C0
0380
0000
0000
0FF0
3FFC
7FF8
7804
F000
F000
F000
F000
7C00
7FC0
1FF0
07F8
00FC
003C
001C
001C
003C
003C
7FF8
7FF0
FFE0
ENDCHAR
STARTCHAR 0161
ENCODING 353
SWIDTH 466 0
DWIDTH 14 0
BBX 12 22 1 0
BITMAP
38E0
1DC0
0F80
0F00
0000
0000
0000
3FE0
7FE0
FFE0
F000
E000
F800
7F80
7FE0
0FF0
00F0
0070
00F0
FFF0
FFE0
FFC0
ENDCHAR
STARTCHAR 0162
ENCODING 354
SWIDTH 0 0
DWIDTH 0 0
BBX 0 0 0 0
BITMAP
ENDCHAR
STARTCHAR 0163
ENCODING 355
SWIDTH 366 0
DWIDTH 11 0
BBX 9 26 1 -7
BITMAP
3800
3800
3800
3800
FF80
FF80
FF80
3800
3800
3800
3800
3800
3800
3800
3800
3800
3F80
3F80
1F80
3000
3C00
3E00
0E00
0E00
3E00
7C00
ENDCHAR
STARTCHAR 0164
ENCODING 356
SWIDTH 533 0
DWIDTH 16 0
BBX 15 28 0 0
BITMAP
3C38
1E70
0FE0
07C0
03C0
0000
0000
FFFE
FFFE
FFFE
03C0
03C0
03C0
03C0
03C0
03C0
03C0
03C0
03C0
03C0
03C0
03C0
03C0
03C0
03C0
03C0
03C0
03C0
ENDCHAR
STARTCHAR 0165
ENCODING 357
SWIDTH 466 0
DWIDTH 14 0
BBX 13 21 1 0
BITMAP
0038
0038
3838
3838
3838
3838
FFB8
FFB8
FF80
3800
3800
3800
3800
3800
3800
3800
3800
3800
3F80
3F80
1F80
ENDCHAR
STARTCHAR 0166
ENCODING 358
SWIDTH 533 0
DWIDTH 16 0
BBX 15 21 0 0
BITMAP
FFFE
FFFE
FFFE
03C0
03C0
03C0
03C0
03C0
03C0
03C0
3FFC
3FFC
3FFC
03C0
03C0
03C0
03C0
03C0
03C0
03C0
03C0
ENDCHAR
STARTCHAR 0167
ENCODING 359
SWIDTH 366 0
DWIDTH 11 0
BBX 9 19 1 0
BITMAP
3800
3800
3800
3800
FF80
FF80
FF80
3800
3800
3800
FF00
FF00
3800
3800
3800
3800
3F80
3F80
1F80
ENDCHAR
STARTCHAR 0168
ENCODING 360
SWIDTH 666 0
DWIDTH 20 0
BBX 15 28 2 0
BITMAP
0C08
1F98
3FF8
13F8
2060
0000
0000
F00E
F00E
F00E
F00E
F00E
F00E
F00E
F00E
F00E
F00E
F00E
F00E
F00E
F00E
F00E
F00E
F00E
781E
7FFC
3FFC
1FF0
ENDCHAR
STARTCHAR 0169
ENCODING 361
SWIDTH 533 0
DWIDTH 16 0
BBX 12 22 2 0
BITMAP
0820
3FE0
7FE0
23C0
0000
0000
0000
E070
E070
E070
E070
E070
E070
E070
E070
E070
E070
E070
F070
FFF0
7FF0
3F70
ENDCHAR
STARTCHAR 016A
ENCODING 362
SWIDTH 666 0
DWIDTH 20 0
BBX 15 26 2 0
BITMAP
1FF8
1FF8
0000
0000
0000
F00E
F00E
F00E
F00E
F00E
F00E
F00E
F00E
F00E
F00E
F00E
F00E
F00E
F00E
F00E
F00E
F00E
781E
7FFC
3FFC
1FF0
ENDCHAR
STARTCHAR 016B
ENCODING 363
SWIDTH 533 0
DWIDTH 16 0
BBX 12 21 2 0
BITMAP
3FC0
3FC0
3FC0
0000
0000
0000
E070
E070
E070
E070
E070
E070
E070
E070
E070
E070
E070
F070
FFF0
7FF0
3F70
ENDCHAR
STARTCHAR 016C
ENCODING 364
SWIDTH 666 0
DWIDTH 20 0
BBX 15 27 2 0
BITMAP
1C38
1FF0
0FF0
07C0
0000
0000
F00E
F00E
F00E
F00E
F00E
F00E
F00E
F00E
F00E
F00E
F00E
F00E
F00E
F00E
F00E
F00E
F00E
781E
7FFC
3FFC
1FF0
ENDCHAR
STARTCHAR 016D
ENCODING 365
SWIDTH 533 0
DWIDTH 16 0
BBX 12 22 2 0
BITMAP
70E0
30C0
3FC0
1F80
0600
0000
0000
E070
E070
E070
E070
E070
E070
E070
E070
E070
E070
E070
F070
FFF0
7FF0
3F70
ENDCHAR
STARTCHAR 016E
ENCODING 366
SWIDTH 666 0
DWIDTH 20 0
BBX 15 29 2 0
BITMAP
0380
07E0
0EF0
0C30
0C70
0FE0
07C0
0000
F00E
F00E
F00E
F00E
F00E
F00E
F00E
F00E
F00E
F00E
F00E
F00E
F00E
F00E
F00E
F00E
F00E
781E
7FFC
3FFC
1FF0
ENDCHAR
STARTCHAR 016F
ENCODING 367
SWIDTH 533 0
DWIDTH 16 0
BBX 12 23 2 0
BITMAP
0600
0F80
1D80
1880
1980
1F80
0F00
0000
E070
E070
E070
E070
E070
E070
E070
E070
E070
E070
E070
F070
FFF0
7FF0
3F70
ENDCHAR
STARTCHAR 0170
ENCODING 368
SWIDTH 666 0
DWIDTH 20 0
BBX 15 28 2 0
BITMAP
071C
0F1C
0E38
1C78
1C70
0810
0000
F00E
F00E
F00E
F00E
F00E
F00E
F00E
F00E
F00E
F00E
F00E
F00E
F00E
F00E
F00E
F00E
F00E
781E
7FFC
3FFC
1FF0
ENDCHAR
STARTCHAR 0171
ENCODING 369
SWIDTH 533 0
DWIDTH 16 0
BBX 13 24 2 0
BITMAP
0410
0E38
1E78
3CF0
38E0
79E0
1040
0000
0000
E070
E070
E070
E070
E070
E070
E070
E070
E070
E070
E070
F070
FFF0
7FF0
3F70
ENDCHAR
STARTCHAR 0172
ENCODING 370
SWIDTH 666 0
DWIDTH 20 0
BBX 15 27 2 -6
BITMAP
F00E
F00E
F00E
F00E
F00E
F00E
F00E
F00E
F00E
F00E
F00E
F00E
F00E
F00E
F00E
F00E
F00E
781E
7FFC
3FFC
1FF0
01C0
0380
0380
0380
03E0
03E0
ENDCHAR
STARTCHAR 0173
ENCODING 371
SWIDTH 533 0
DWIDTH 16 0
BBX 13 21 2 -6
BITMAP
E070
E070
E070
E070
E070
E070
E070
E070
E070
E070
E070
F070
FFF0
7FF0
3F70
0070
00E0
01C0
01C0
01F8
00F8
ENDCHAR
STARTCHAR 0174
ENCODING 372
SWIDTH 900 0
DWIDTH 27 0
BBX 26 28 1 0
BITMAP
001C0000
003E0000
007F0000
00F78000
01E3C000
00000000
00000000
E00003C0
E03E0380
F03E0380
F03E0380
703E0780
70370780
70770700
70770700
78730700
78738700
38E38F00
38E38E00
38E38E00
38E18E00
3CE1CE00
1DC1CE00
1DC1DC00
1DC1DC00
1FC0FC00
1F80FC00
0F80FC00
ENDCHAR
STARTCHAR 0175
ENCODING 373
SWIDTH 766 0
DWIDTH 23 0
BBX 21 22 1 0
BITMAP
007000
00F800
01DC00
01CE00
020000
000000
000000
E07038
E07038
E0F878
70F878
70F870
70D870
71DC70
71DC70
39DCE0
398CE0
3B8EE0
3B8EE0
3F8FE0
1F87C0
1F07C0
ENDCHAR
STARTCHAR 0176
ENCODING 374
SWIDTH 533 0
DWIDTH 16 0
BBX 16 28 0 0
BITMAP
01C0
03E0
07F0
0F78
1E3C
0000
0000
F007
700F
780E
381E
3C1C
1C3C
1E38
0E78
0F70
07F0
07E0
03C0
01C0
01C0
01C0
01C0
01C0
01C0
01C0
01C0
01C0
ENDCHAR
STARTCHAR 0177
ENCODING 375
SWIDTH 500 0
DWIDTH 15 0
BBX 13 28 1 -6
BITMAP
0700
0F80
1DC0
39C0
0020
0000
0000
E038
E038
E078
7070
7070
7070
70E0
38E0
38E0
39E0
3DC0
1DC0
1FC0
1FC0
1F80
0380
0380
0780
0700
0700
0F00
ENDCHAR
STARTCHAR 0178
ENCODING 376
SWIDTH 533 0
DWIDTH 16 0
BBX 16 27 0 0
BITMAP
1E38
1E38
1E38
1E38
0000
0000
F007
700F
780E
381E
3C1C
1C3C
1E38
0E78
0F70
07F0
07E0
03C0
01C0
01C0
01C0
01C0
01C0
01C0
01C0
01C0
01C0
ENDCHAR
STARTCHAR 0179
ENCODING 377
SWIDTH 533 0
DWIDTH 16 0
BBX 14 28 1 0
BITMAP
0040
03E0
0FE0
1F80
0C00
0000
0000
FFFC
FFFC
FFFC
003C
0078
0078
00F0
01E0
01C0
03C0
0780
0700
0F00
1E00
1C00
3C00
7800
F000
FFFC
FFFC
FFFC
ENDCHAR
STARTCHAR 017A
ENCODING 378
SWIDTH 466 0
DWIDTH 14 0
BBX 11 22 1 0
BITMAP
0180
0FC0
3FC0
3C00
2000
0000
0000
FFE0
FFE0
FFE0
01E0
03C0
0780
0780
0F00
1E00
3C00
7800
7800
FFE0
FFE0
FFE0
ENDCHAR
STARTCHAR 017B
ENCODING 379
SWIDTH 533 0
DWIDTH 16 0
BBX 14 27 1 0
BITMAP
0780
0780
0780
0780
0000
0000
FFFC
FFFC
FFFC
003C
0078
0078
00F0
01E0
01C0
03C0
0780
0700
0F00
1E00
1C00
3C00
7800
F000
FFFC
FFFC
FFFC
ENDCHAR
STARTCHAR 017C
ENCODING 380
SWIDTH 466 0
DWIDTH 14 0
BBX 11 21 1 0
BITMAP
0E00
0E00
0E00
0E00
0000
0000
FFE0
FFE0
FFE0
01E0
03C0
0780
0780
0F00
1E00
3C00
7800
7800
FFE0
FFE0
FFE0
ENDCHAR
STARTCHAR 017D
ENCODING 381
SWIDTH 533 0
DWIDTH 16 0
BBX 14 28 1 0
BITMAP
3878
1CF0
0FE0
07C0
0380
0000
0000
FFFC
FFFC
FFFC
003C
0078
0078
00F0
01E0
01C0
03C0
0780
0700
0F00
1E00
1C00
3C00
7800
F000
FFFC
FFFC
FFFC
ENDCHAR
STARTCHAR 017E
ENCODING 382
SWIDTH 466 0
DWIDTH 14 0
BBX 11 22 1 0
BITMAP
79E0
39C0
1F80
0F00
0000
0000
0000
FFE0
FFE0
FFE0
01E0
03C0
0780
0780
0F00
1E00
3C00
7800
7800
FFE0
FFE0
FFE0
ENDCHAR
STARTCHAR 0192
ENCODING 402
SWIDTH 566 0
DWIDTH 17 0
BBX 12 28 1 -7
BITMAP
01F0
03F0
07F0
0780
0700
0700
0700
1FF0
1FF0
1FF0
0700
0700
0700
0700
0700
0700
0700
0700
0700
0700
0700
0700
0700
0700
0F00
FF00
FE00
FC00
ENDCHAR
STARTCHAR 01FA
ENCODING 506
SWIDTH 600 0
DWIDTH 18 0
BBX 16 31 1 0
BITMAP
0060
01E0
07F0
0FC0
0E00
0000
07E0
0FF0
0C30
0C30
0FF0
0FF0
0FF0
0E70
0E70
1E78
1C38
1C38
1C38
3C3C
381C
381C
381C
781E
7FFE
7FFE
7FFE
F00F
F00F
E007
E007
ENDCHAR
STARTCHAR 01FB
ENCODING 507
SWIDTH 500 0
DWIDTH 15 0
BBX 13 28 1 0
BITMAP
00C0
03C0
1FE0
1F00
1800
0200
0F80
1DC0
18C0
18C0
0F80
0F00
0000
7FC0
7FE0
7DF0
0070
0070
0070
1FF0
7FF0
F870
F070
E070
E070
F3F8
7FF8
3FB8
ENDCHAR
STARTCHAR 01FC
ENCODING 508
SWIDTH 866 0
DWIDTH 26 0
BBX 25 28 0 0
BITMAP
00006000
0001E000
0007F000
000F8000
000E0000
00000000
00000000
03FFFF80
03FFFF80
03FFFF80
038E0000
078E0000
070E0000
070E0000
0F0E0000
0E0E0000
0E0FFE00
0E0FFE00
1E0FFE00
1C0E0000
1C0E0000
3FFE0000
3FFE0000
3FFE0000
780E0000
780FFF80
700FFF80
F00FFF80
ENDCHAR
STARTCHAR 01FD
ENCODING 509
SWIDTH 800 0
DWIDTH 24 0
BBX 22 22 1 0
BITMAP
000E00
003E00
01FE00
01F000
008000
000000
000000
7FCFE0
7FFFF0
7FFFF8
00F838
007038
00703C
1FFFFC
7FFFFC
F87FF8
F07000
E07000
E07800
FFFFF8
7FFFF8
3F9FF8
ENDCHAR
STARTCHAR 01FE
ENCODING 510
SWIDTH 666 0
DWIDTH 20 0
BBX 17 32 1 -4
BITMAP
003000
00F000
03F800
07C000
070300
000700
000700
03FE00
0FFE00
1FFE00
3E1F00
783F00
783F80
707780
707380
706380
70E380
F0E380
F1C380
71C380
738380
738780
770780
7F0700
3E0F00
3FFF00
1FFE00
1FF800
380000
380000
300000
100000
ENDCHAR
STARTCHAR 01FF
ENCODING 511
SWIDTH 533 0
DWIDTH 16 0
BBX 14 25 1 -3
BITMAP
00C0
07E0
1FE0
1F00
0830
0070
0060
1FE0
3FF0
7EF8
71F8
71B8
F1BC
F33C
F33C
F73C
F63C
7638
7C38
7DF8
3FF0
1FE0
3800
3000
3000
ENDCHAR
STARTCHAR 0218
ENCODING 536
SWIDTH 533 0
DWIDTH 16 0
BBX 14 30 1 -9
BITMAP
0FF0
3FFC
7FF8
7804
F000
F000
F000
F000
7C00
7FC0
1FF0
07F8
00FC
003C
001C
001C
003C
003C
7FF8
7FF0
FFE0
0000
0000
0380
0380
0780
0700
0700
0700
0700
ENDCHAR
STARTCHAR 0219
ENCODING 537
SWIDTH 466 0
DWIDTH 14 0
BBX 12 24 1 -9
BITMAP
3FE0
7FE0
FFE0
F000
E000
F800
7F80
7FE0
0FF0
00F0
0070
00F0
FFF0
FFE0
FFC0
0000
0000
7800
7000
7000
7000
7000
E000
E000
ENDCHAR
STARTCHAR 021A
ENCODING 538
SWIDTH 533 0
DWIDTH 16 0
BBX 15 30 0 -9
BITMAP
FFFE
FFFE
FFFE
03C0
03C0
03C0
03C0
03C0
03C0
03C0
03C0
03C0
03C0
03C0
03C0
03C0
03C0
03C0
03C0
03C0
03C0
0000
0000
01C0
01C0
01C0
0380
0380
0380
0380
ENDCHAR
STARTCHAR 021B
ENCODING 539
SWIDTH 366 0
DWIDTH 11 0
BBX 9 28 1 -9
BITMAP
3800
3800
3800
3800
FF80
FF80
FF80
3800
3800
3800
3800
3800
3800
3800
3800
3800
3F80
3F80
1F80
0000
0000
3800
7800
7000
7000
7000
7000
E000
ENDCHAR
STARTCHAR 02C6
ENCODING 710
SWIDTH 266 0
DWIDTH 8 0
BBX 10 4 -1 18
BITMAP
0E00
1E00
3F00
F3C0
ENDCHAR
STARTCHAR 02C7
ENCODING 711
SWIDTH 266 0
DWIDTH 8 0
BBX 10 4 -1 18
BITMAP
F1C0
3B80
1F00
1E00
ENDCHAR
STARTCHAR 02D8
ENCODING 728
SWIDTH 266 0
DWIDTH 8 0
BBX 10 5 -1 17
BITMAP
E1C0
61C0
7F80
3F00
0C00
ENDCHAR
STARTCHAR 02D9
ENCODING 729
SWIDTH 266 0
DWIDTH 8 0
BBX 3 4 2 17
BITMAP
E0
E0
E0
E0
ENDCHAR
STARTCHAR 02DA
ENCODING 730
SWIDTH 266 0
DWIDTH 8 0
BBX 6 7 1 16
BITMAP
20
F8
DC
8C
CC
FC
78
ENDCHAR
STARTCHAR 02DB
ENCODING 731
SWIDTH 466 0
DWIDTH 14 0
BBX 6 6 6 -6
BITMAP
38
70
E0
F0
FC
7C
ENDCHAR
STARTCHAR 02DC
ENCODING 732
SWIDTH 266 0
DWIDTH 8 0
BBX 10 4 -1 18
BITMAP
1040
7FC0
FFC0
4780
ENDCHAR
STARTCHAR 02DD
ENCODING 733
SWIDTH 266 0
DWIDTH 8 0
BBX 13 7 -2 17
BITMAP
0820
1C70
1E78
3CF0
79E0
F3C0
2080
ENDCHAR
STARTCHAR 03C0
ENCODING 960
SWIDTH 566 0
DWIDTH 17 0
BBX 15 15 1 0
BITMAP
FFFE
FFFE
FFFC
3C70
3C70
3870
3870
3870
3870
3870
3870
3878
387E
383E
383E
ENDCHAR
STARTCHAR 1E80
ENCODING 7808
SWIDTH 900 0
DWIDTH 27 0
BBX 26 28 1 0
BITMAP
00600000
007C0000
007F0000
001F8000
00030000
00000000
00000000
E00003C0
E03E0380
F03E0380
F03E0380
703E0780
70370780
70770700
70770700
78730700
78738700
38E38F00
38E38E00
38E38E00
38E18E00
3CE1CE00
1DC1CE00
1DC1DC00
1DC1DC00
1FC0FC00
1F80FC00
0F80FC00
ENDCHAR
STARTCHAR 1E81
ENCODING 7809
SWIDTH 766 0
DWIDTH 23 0
BBX 21 22 1 0
BITMAP
018000
03F000
03FC00
007C00
000800
000000
000000
E07038
E07038
E0F878
70F878
70F870
70D870
71DC70
71DC70
39DCE0
398CE0
3B8EE0
3B8EE0
3F8FE0
1F87C0
1F07C0
ENDCHAR
STARTCHAR 1E82
ENCODING 7810
SWIDTH 900 0
DWIDTH 27 0
BBX 26 28 1 0
BITMAP
00030000
000F8000
003F8000
007E0000
00700000
00000000
00000000
E00003C0
E03E0380
F03E0380
F03E0380
703E0780
70370780
70770700
70770700
78730700
78738700
38E38F00
38E38E00
38E38E00
38E18E00
3CE1CE00
1DC1CE00
1DC1DC00
1DC1DC00
1FC0FC00
1F80FC00
0F80FC00
ENDCHAR
STARTCHAR 1E83
ENCODING 7811
SWIDTH 766 0
DWIDTH 23 0
BBX 21 22 1 0
BITMAP
000C00
007E00
01FE00
01E000
010000
000000
000000
E07038
E07038
E0F878
70F878
70F870
70D870
71DC70
71DC70
39DCE0
398CE0
3B8EE0
3B8EE0
3F8FE0
1F87C0
1F07C0
ENDCHAR
STARTCHAR 1E84
ENCODING 7812
SWIDTH 900 0
DWIDTH 27 0
BBX 26 27 1 0
BITMAP
00E38000
00E38000
00E38000
00E38000
00000000
00000000
E00003C0
E03E0380
F03E0380
F03E0380
703E0780
70370780
70770700
70770700
78730700
78738700
38E38F00
38E38E00
38E38E00
38E18E00
3CE1CE00
1DC1CE00
1DC1DC00
1DC1DC00
1FC0FC00
1F80FC00
0F80FC00
ENDCHAR
STARTCHAR 1E85
ENCODING 7813
SWIDTH 766 0
DWIDTH 23 0
BBX 21 22 1 0
BITMAP
038E00
038E00
038E00
038E00
000000
000000
000000
E07038
E07038
E0F878
70F878
70F870
70D870
71DC70
71DC70
39DCE0
398CE0
3B8EE0
3B8EE0
3F8FE0
1F87C0
1F07C0
ENDCHAR
STARTCHAR 1EAB
ENCODING 7851
SWIDTH 500 0
DWIDTH 15 0
BBX 13 26 1 0
BITMAP
3C40
7FE0
7FC0
4180
0000
0700
0F00
1F80
39C0
4020
0000
7FC0
7FE0
7DF0
0070
0070
0070
1FF0
7FF0
F870
F070
E070
E070
F3F8
7FF8
3FB8
ENDCHAR
STARTCHAR 1EB0
ENCODING 7856
SWIDTH 600 0
DWIDTH 18 0
BBX 16 33 1 0
BITMAP
1800
1E00
3F80
0FC0
00C0
0000
0000
1C38
1E78
0FF0
07E0
0000
07E0
0FF0
0FF0
0E70
0E70
1E78
1C78
1C38
1C38
3C3C
3C3C
381C
381C
781E
7FFE
7FFE
7FFE
F00E
F00F
E007
E007
ENDCHAR
STARTCHAR 1EC5
ENCODING 7877
SWIDTH 500 0
DWIDTH 15 0
BBX 13 26 1 0
BITMAP
1C20
3FE0
3FF0
2180
0000
0700
0F80
0FC0
1CE0
2010
0000
1FC0
3FF0
7FF0
7078
7038
F038
FFF8
FFF8
FFF8
F000
F000
7000
7FF8
3FF8
1FF8
ENDCHAR
STARTCHAR 1ED7
ENCODING 7895
SWIDTH 533 0
DWIDTH 16 0
BBX 14 26 1 0
BITMAP
1C20
3FE0
3FE0
2180
0000
0700
0780
0FC0
1CE0
2010
0000
1FE0
3FF0
7FF8
7038
7038
F03C
F03C
F03C
F03C
F03C
7038
7038
7FF8
3FF0
1FE0
ENDCHAR
STARTCHAR 1EF2
ENCODING 7922
SWIDTH 533 0
DWIDTH 16 0
BBX 16 28 0 0
BITMAP
0600
0780
0FE0
03F0
0070
0000
0000
F007
700F
780E
381E
3C1C
1C3C
1E38
0E78
0F70
07F0
07E0
03C0
01C0
01C0
01C0
01C0
01C0
01C0
01C0
01C0
01C0
ENDCHAR
STARTCHAR 1EF3
ENCODING 7923
SWIDTH 500 0
DWIDTH 15 0
BBX 13 28 1 -6
BITMAP
3800
3E00
3FC0
07C0
0080
0000
0000
E038
E038
E078
7070
7070
7070
70E0
38E0
38E0
39E0
3DC0
1DC0
1FC0
1FC0
1F80
0380
0380
0780
0700
0700
0F00
ENDCHAR
STARTCHAR 1EF8
ENCODING 7928
SWIDTH 533 0
DWIDTH 16 0
BBX 16 27 0 0
BITMAP
0F90
1FF8
19F0
0000
0000
0000
F00F
700E
781E
381C
3C3C
1E38
1E78
0F70
0FF0
07E0
03E0
03C0
03C0
03C0
03C0
03C0
03C0
03C0
03C0
03C0
03C0
ENDCHAR
STARTCHAR 1EF9
ENCODING 7929
SWIDTH 500 0
DWIDTH 15 0
BBX 13 28 1 -6
BITMAP
0820
3FE0
7FE0
23C0
0000
0000
0000
E038
E038
E078
7070
7070
70F0
78F0
38E0
38E0
39E0
3DC0
1DC0
1FC0
1FC0
1F80
0380
0380
0780
0700
0700
0F00
ENDCHAR
STARTCHAR 2013
ENCODING 8211
SWIDTH 633 0
DWIDTH 19 0
BBX 15 2 2 7
BITMAP
FFFE
FFFE
ENDCHAR
STARTCHAR 2014
ENCODING 8212
SWIDTH 1133 0
DWIDTH 34 0
BBX 30 2 2 7
BITMAP
FFFFFFFC
FFFFFFFC
ENDCHAR
STARTCHAR 2018
ENCODING 8216
SWIDTH 233 0
DWIDTH 7 0
BBX 5 7 1 14
BITMAP
38
38
38
70
70
70
F0
ENDCHAR
STARTCHAR 2019
ENCODING 8217
SWIDTH 233 0
DWIDTH 7 0
BBX 5 7 1 14
BITMAP
38
38
70
70
70
70
E0
ENDCHAR
STARTCHAR 201A
ENCODING 8218
SWIDTH 233 0
DWIDTH 7 0
BBX 2 4 2 -2
BITMAP
C0
C0
80
80
ENDCHAR
STARTCHAR 201C
ENCODING 8220
SWIDTH 400 0
DWIDTH 12 0
BBX 10 7 1 14
BITMAP
38C0
39C0
39C0
71C0
7380
7380
F780
ENDCHAR
STARTCHAR 201D
ENCODING 8221
SWIDTH 400 0
DWIDTH 12 0
BBX 10 7 1 14
BITMAP
39C0
79C0
73C0
7380
7380
6380
E300
ENDCHAR
STARTCHAR 201E
ENCODING 8222
SWIDTH 400 0
DWIDTH 12 0
BBX 10 7 0 -4
BITMAP
39C0
39C0
71C0
7380
7380
7380
F780
ENDCHAR
STARTCHAR 2020
ENCODING 8224
SWIDTH 466 0
DWIDTH 14 0
BBX 12 23 1 -2
BITMAP
0700
0700
0700
0700
0700
0700
FFF0
FFF0
FFF0
0700
0700
0700
0700
0700
0700
0700
0700
0700
0700
0700
0700
0700
0700
ENDCHAR
STARTCHAR 2021
ENCODING 8225
SWIDTH 500 0
DWIDTH 15 0
BBX 13 23 1 -2
BITMAP
0700
0700
0700
0700
0700
0700
FFF8
FFF8
FFF8
0700
0700
0700
0700
0700
0700
FFF8
FFF8
FFF8
0700
0700
0700
0700
0700
ENDCHAR
STARTCHAR 2022
ENCODING 8226
SWIDTH 466 0
DWIDTH 14 0
BBX 8 9 3 3
BITMAP
FF
FF
FF
FF
FF
FF
FF
FF
FF
ENDCHAR
STARTCHAR 2026
ENCODING 8230
SWIDTH 733 0
DWIDTH 22 0
BBX 19 4 2 0
BITMAP
E1E1E0
E1E1E0
E1E1E0
E1E1E0
ENDCHAR
STARTCHAR 2030
ENCODING 8240
SWIDTH 833 0
DWIDTH 25 0
BBX 23 22 1 -1
BITMAP
002000
7C3000
FC7000
EE6000
CE6000
CE6000
EEC000
FEC000
7CC000
018000
018000
018000
030000
033C3C
037E7E
0666E6
0667E6
0667E6
0C66E6
0C7E7E
0C3C7C
080000
ENDCHAR
STARTCHAR 2039
ENCODING 8249
SWIDTH 300 0
DWIDTH 9 0
BBX 7 12 1 1
BITMAP
02
0E
1E
3C
F8
E0
F0
78
3E
0E
06
02
ENDCHAR
STARTCHAR 203A
ENCODING 8250
SWIDTH 300 0
DWIDTH 9 0
BBX 6 12 2 1
BITMAP
80
C0
F0
78
3C
1C
3C
78
F0
C0
80
80
ENDCHAR
STARTCHAR 2044
ENCODING 8260
SWIDTH 0 0
DWIDTH 0 0
BBX 13 20 -7 0
BITMAP
0008
0018
0018
0030
0060
0060
00C0
00C0
0180
0300
0300
0600
0C00
0C00
1800
1800
3000
6000
6000
C000
ENDCHAR
STARTCHAR 2070
ENCODING 8304
SWIDTH 266 0
DWIDTH 8 0
BBX 8 10 0 14
BITMAP
3C
7E
77
67
E7
E7
67
77
7E
3C
ENDCHAR
STARTCHAR 2074
ENCODING 8308
SWIDTH 266 0
DWIDTH 8 0
BBX 7 10 1 14
BITMAP
70
70
60
EC
EC
CC
FE
FE
0C
0C
ENDCHAR
STARTCHAR 2075
ENCODING 8309
SWIDTH 266 0
DWIDTH 8 0
BBX 7 10 1 14
BITMAP
FC
FC
FC
C0
FC
FE
0E
DE
FC
F8
ENDCHAR
STARTCHAR 2076
ENCODING 8310
SWIDTH 266 0
DWIDTH 8 0
BBX 7 10 1 14
BITMAP
7E
FC
E0
D0
FC
FE
CE
EE
FC
78
ENDCHAR
STARTCHAR 2077
ENCODING 8311
SWIDTH 266 0
DWIDTH 8 0
BBX 6 10 1 14
BITMAP
FC
FC
FC
1C
1C
38
38
70
70
F0
ENDCHAR
STARTCHAR 2078
ENCODING 8312
SWIDTH 266 0
DWIDTH 8 0
BBX 8 10 0 14
BITMAP
3E
7F
67
67
7E
7F
E7
67
7F
3E
ENDCHAR
STARTCHAR 2079
ENCODING 8313
SWIDTH 266 0
DWIDTH 8 0
BBX 7 10 1 14
BITMAP
78
FC
FC
CE
FE
FE
2E
9C
FC
F8
ENDCHAR
STARTCHAR 2080
ENCODING 8320
SWIDTH 266 0
DWIDTH 8 0
BBX 8 10 0 -3
BITMAP
18
7E
7F
67
E7
E7
E7
67
7E
3E
ENDCHAR
STARTCHAR 2081
ENCODING 8321
SWIDTH 266 0
DWIDTH 8 0
BBX 6 9 1 -3
BITMAP
3C
FC
FC
5C
1C
1C
1C
1C
1C
ENDCHAR
STARTCHAR 2082
ENCODING 8322
SWIDTH 266 0
DWIDTH 8 0
BBX 7 10 1 -3
BITMAP
38
FC
FE
0E
1C
3C
78
E0
FE
FE
ENDCHAR
STARTCHAR 2083
ENCODING 8323
SWIDTH 266 0
DWIDTH 8 0
BBX 7 10 1 -3
BITMAP
78
FC
FC
0C
7C
7C
1E
0E
FC
FC
ENDCHAR
STARTCHAR 2084
ENCODING 8324
SWIDTH 266 0
DWIDTH 8 0
BBX 7 9 1 -3
BITMAP
70
70
E0
EC
EC
FE
FE
FE
0C
ENDCHAR
STARTCHAR 2085
ENCODING 8325
SWIDTH 266 0
DWIDTH 8 0
BBX 6 9 1 -3
BITMAP
FC
FC
C0
FC
FC
0C
0C
FC
F8
ENDCHAR
STARTCHAR 2086
ENCODING 8326
SWIDTH 266 0
DWIDTH 8 0
BBX 7 10 1 -3
BITMAP
18
7C
FC
C0
FC
FC
CE
CE
FC
7C
ENDCHAR
STARTCHAR 2087
ENCODING 8327
SWIDTH 266 0
DWIDTH 8 0
BBX 6 9 1 -3
BITMAP
FC
FC
1C
1C
1C
38
38
70
70
ENDCHAR
STARTCHAR 2088
ENCODING 8328
SWIDTH 266 0
DWIDTH 8 0
BBX 8 10 0 -3
BITMAP
1C
7E
7F
67
7E
7E
67
E7
7F
7E
ENDCHAR
STARTCHAR 2089
ENCODING 8329
SWIDTH 266 0
DWIDTH 8 0
BBX 7 10 1 -3
BITMAP
30
FC
FC
CE
CE
FE
7E
0E
FC
FC
ENDCHAR
STARTCHAR 20AC
ENCODING 8364
SWIDTH 566 0
DWIDTH 17 0
BBX 15 20 1 0
BITMAP
07FC
0FFE
1FFE
3E00
3C00
3800
3800
FFF8
FFF8
3800
3800
FFF8
FFF8
FFF8
3800
3C00
3C00
1FFE
0FFE
07FE
ENDCHAR
STARTCHAR 2122
ENCODING 8482
SWIDTH 666 0
DWIDTH 20 0
BBX 15 9 3 10
BITMAP
FF8E
FFCE
33DE
335E
335E
3376
3376
3336
3326
ENDCHAR
STARTCHAR 2126
ENCODING 8486
SWIDTH 566 0
DWIDTH 17 0
BBX 14 20 1 0
BITMAP
0FE0
3FF0
3FF8
783C
703C
701C
701C
F01C
F01C
F01C
701C
701C
703C
7838
3838
3878
1C70
FCFC
FEFC
FEFC
ENDCHAR
STARTCHAR 2202
ENCODING 8706
SWIDTH 566 0
DWIDTH 17 0
BBX 14 22 1 0
BITMAP
0300
3FE0
3FF0
30F8
0038
003C
003C
001C
001C
0FDC
3FFC
7FFC
781C
F01C
F01C
F01C
F03C
F03C
7078
7FF8
3FF0
1FC0
ENDCHAR
STARTCHAR 2206
ENCODING 8710
SWIDTH 566 0
DWIDTH 17 0
BBX 14 20 1 0
BITMAP
07C0
0FE0
0FE0
0EE0
0EE0
1CE0
1C70
1C70
1C70
3C70
3838
3838
3838
7838
703C
701C
701C
FFFC
FFFC
FFFC
ENDCHAR
STARTCHAR 220F
ENCODING 8719
SWIDTH 566 0
DWIDTH 17 0
BBX 15 28 1 -5
BITMAP
FFFE
FFFE
FFFE
3838
3838
3838
3838
3838
3838
3838
3838
3838
3838
3838
3838
3838
3838
3838
3838
3838
3838
3838
3838
3838
3838
3838
3838
3838
ENDCHAR
STARTCHAR 2211
ENCODING 8721
SWIDTH 566 0
DWIDTH 17 0
BBX 15 28 1 -5
BITMAP
FFFE
FFFE
FFFE
F000
F000
7800
3C00
1E00
1E00
0F00
0780
03C0
03C0
01E0
01E0
03C0
03C0
0780
0F00
0E00
1E00
3C00
7800
7000
F000
FFFE
FFFE
FFFE
ENDCHAR
STARTCHAR 2212
ENCODING 8722
SWIDTH 566 0
DWIDTH 17 0
BBX 13 3 2 6
BITMAP
FFF8
FFF8
FFF8
ENDCHAR
STARTCHAR 221A
ENCODING 8730
SWIDTH 566 0
DWIDTH 17 0
BBX 17 28 0 -4
BITMAP
000380
000380
000780
000700
000700
000700
000F00
000E00
000E00
000E00
001E00
F81C00
F81C00
F81C00
381C00
3C3800
3C3800
1C3800
1C3800
1C7000
1E7000
0E7000
0E7000
0EF000
0FE000
07E000
07E000
07E000
ENDCHAR
STARTCHAR 221E
ENCODING 8734
SWIDTH 566 0
DWIDTH 17 0
BBX 15 10 1 4
BITMAP
3878
7EFC
FEFE
E7CE
E38E
E38E
E38E
FFDE
FEFC
7C7C
ENDCHAR
STARTCHAR 222B
ENCODING 8747
SWIDTH 566 0
DWIDTH 17 0
BBX 11 29 3 -6
BITMAP
07E0
0FE0
0FE0
0E00
0E00
0E00
0E00
0E00
0E00
0E00
0E00
0E00
0E00
0E00
0E00
0E00
0E00
0E00
0E00
0E00
0E00
0E00
0E00
0E00
0E00
1E00
FE00
FC00
F800
ENDCHAR
STARTCHAR 2248
ENCODING 8776
SWIDTH 566 0
DWIDTH 17 0
BBX 13 10 2 2
BITMAP
7E18
FFF8
EFF8
81E0
0000
0000
7E08
FFF8
FFF8
81F0
ENDCHAR
STARTCHAR 2260
ENCODING 8800
SWIDTH 566 0
DWIDTH 17 0
BBX 13 18 2 -1
BITMAP
0080
00E0
00E0
01C0
01C0
FFF8
FFF8
FFF8
0700
0700
0E00
FFF8
FFF8
FFF8
1C00
3800
3800
7000
ENDCHAR
STARTCHAR 2264
ENCODING 8804
SWIDTH 566 0
DWIDTH 17 0
BBX 13 14 2 1
BITMAP
0038
01F8
0FF8
7FC0
FC00
F800
FF80
1FF8
03F8
0078
0008
FFF8
FFF8
FFF8
ENDCHAR
STARTCHAR 2265
ENCODING 8805
SWIDTH 566 0
DWIDTH 17 0
BBX 13 14 2 1
BITMAP
E000
FC00
FF80
3FF0
01F8
00F8
0FF8
FFC0
FE00
F000
8000
FFF8
FFF8
FFF8
ENDCHAR
STARTCHAR 25CA
ENCODING 9674
SWIDTH 566 0
DWIDTH 17 0
BBX 14 10 1 5
BITMAP
07C0
0FE0
1FF0
3C78
783C
F01C
3C78
1EF0
0FE0
07C0
ENDCHAR
STARTCHAR F6BE
ENCODING 63166
SWIDTH 233 0
DWIDTH 7 0
BBX 6 22 -1 -7
BITMAP
1C
1C
1C
1C
1C
1C
1C
1C
1C
1C
1C
1C
1C
1C
1C
1C
1C
3C
78
F8
E0
40
ENDCHAR
STARTCHAR F6C3
ENCODING 63171
SWIDTH 166 0
DWIDTH 5 0
BBX 5 7 0 -9
BITMAP
78
70
70
70
70
E0
E0
ENDCHAR
ENDFONT
